<svg width="136" height="249" viewBox="0 0 136 249" fill="none" xmlns="http://www.w3.org/2000/svg">
<path d="M76.9091 163.776L87.153 248.699H90.512L80.269 163.776H76.9091Z" fill="#D2DCFF"/>
<path d="M122.176 163.775L123.329 173.326L132.419 248.698H135.779L126.643 172.952L125.536 163.775H122.176Z" fill="#D2DCFF"/>
<path d="M76.9091 248.698H80.269L81.686 236.953L83.3651 223.027L88.89 177.221L90.512 163.775H87.152L85.4841 177.605L81.686 209.099L80.006 223.025L76.9091 248.698Z" fill="#D2DCFF"/>
<path d="M31.642 248.698H35.002L42.952 182.783H42.9531L45.2451 163.775H41.8851L39.548 183.15L31.642 248.698Z" fill="#D2DCFF"/>
<path d="M122.012 107.006H125.372V158.376H122.012V107.006Z" fill="#D2DCFF"/>
<path d="M76.361 107.006H79.72V158.376H76.361V107.006Z" fill="#D2DCFF"/>
<path d="M40.475 158.376H86.634C85.143 158.376 83.934 159.585 83.934 161.076C83.934 162.567 85.143 163.776 86.634 163.776H40.475C38.984 163.776 37.775 162.567 37.775 161.076C37.776 159.584 38.984 158.376 40.475 158.376Z" fill="#D2DCFF"/>
<path d="M83.9351 161.075C83.9351 159.584 85.1441 158.375 86.6351 158.375H121.941H126.489C127.98 158.375 129.189 159.584 129.189 161.075C129.189 162.566 127.98 163.775 126.489 163.775H121.941H86.634C85.143 163.775 83.9351 162.566 83.9351 161.075Z" fill="#86A2E2"/>
<path d="M73.616 68.347H128.117C130.195 68.347 131.88 70.032 131.88 72.11V103.244C131.88 105.322 130.195 107.007 128.117 107.007H73.616C71.538 107.007 69.853 105.322 69.853 103.244V72.11C69.853 70.031 71.538 68.347 73.616 68.347Z" fill="#D2DCFF"/>
<path d="M122.176 163.775L123.328 173.326C124.542 173.189 125.651 173.064 126.642 172.953L125.535 163.775H122.176Z" fill="#AEC3FF"/>
<path d="M87.152 163.775L85.4841 177.605C86.6251 177.477 87.761 177.348 88.89 177.221L90.512 163.775H87.152Z" fill="#AEC3FF"/>
<path d="M39.548 183.15C40.632 183.034 41.769 182.912 42.952 182.783H42.9531L45.2451 163.775H41.8851L39.548 183.15Z" fill="#AEC3FF"/>
<path d="M125.372 107.006H122.012V114.101L125.372 113.729V107.006Z" fill="#AEC3FF"/>
<path d="M76.361 107.006V119.154L79.72 118.783V107.006H76.361Z" fill="#AEC3FF"/>
<path d="M58.1281 21.0981C71.2181 23.2801 87.5281 18.4081 89.5731 15.3051C94.3121 22.5271 96.72 22.3011 96.72 22.3011V27.7171L97.79 26.6471C98.12 25.9011 98.644 25.1601 99.428 25.1601C103.738 25.1601 104.039 37.1481 96.785 37.8411C96.642 38.3111 96.494 38.7501 96.343 39.1481V58.3361H79.981V50.7891C78.881 51.0911 77.8271 51.2641 76.8591 51.2641C70.4081 51.2641 59.4151 41.7781 58.1691 26.6471C58.0941 23.7921 58.1281 21.0981 58.1281 21.0981Z" fill="#FCBEB7"/>
<path d="M77.988 0.561035C89.272 0.561035 91.529 6.57903 91.529 6.57903C96.344 6.57903 103.716 15.381 99.277 25.16L99.254 25.183L96.719 27.718V22.302C96.719 22.302 94.312 22.528 89.572 15.306C87.527 18.408 71.216 23.28 58.127 21.099C58.127 21.099 58.093 23.793 58.168 26.648C58.168 26.651 58.168 26.654 58.168 26.657C53.28 12.513 63.093 0.561035 77.988 0.561035Z" fill="#311643"/>
<path d="M82.84 30.778C83.339 30.778 83.743 30.374 83.743 29.875V28.189C83.743 27.69 83.339 27.286 82.84 27.286C82.341 27.286 81.9371 27.69 81.9371 28.189V29.875C81.9371 30.374 82.342 30.778 82.84 30.778Z" fill="#311643"/>
<path d="M66.1021 30.778C66.6011 30.778 67.0051 30.374 67.0051 29.875V28.189C67.0051 27.69 66.6011 27.286 66.1021 27.286C65.6031 27.286 65.199 27.69 65.199 28.189V29.875C65.199 30.374 65.6031 30.778 66.1021 30.778Z" fill="#311643"/>
<path d="M76.2031 41.315C77.8141 41.315 78.9111 40.709 79.5761 40.157C80.4141 39.461 80.762 38.702 80.777 38.67C80.871 38.462 80.7781 38.217 80.5701 38.123C80.3621 38.029 80.1181 38.122 80.0231 38.329C79.9761 38.431 78.832 40.831 75.507 40.446C75.28 40.42 75.075 40.583 75.048 40.81C75.021 41.037 75.1841 41.242 75.4111 41.269C75.6881 41.301 75.9521 41.315 76.2031 41.315Z" fill="#311643"/>
<path d="M88.8331 38.2631C86.3677 38.2631 84.369 36.2645 84.369 33.7991C84.369 31.3337 86.3677 29.3351 88.8331 29.3351C91.2985 29.3351 93.2971 31.3337 93.2971 33.7991C93.2971 36.2645 91.2985 38.2631 88.8331 38.2631Z" fill="#F49795"/>
<path d="M58.6331 30.0931C59.1991 33.0911 60.1471 35.8241 61.3461 38.2571C63.7071 38.1401 65.584 36.1891 65.584 33.7991C65.584 31.3341 63.586 29.3361 61.121 29.3361C60.2 29.3361 59.3441 29.6151 58.6331 30.0931Z" fill="#F49795"/>
<path d="M66.1021 20.224C69.3611 20.224 72.0521 22.702 72.3911 25.872C74.1631 25.038 75.7271 25.49 76.5521 25.869C76.8921 22.7 79.582 20.224 82.84 20.224C86.328 20.224 89.165 23.062 89.165 26.549C89.165 30.036 86.327 32.874 82.84 32.874C79.431 32.874 76.6441 30.162 76.5211 26.782C75.9971 26.485 74.3141 25.716 72.4221 26.787C72.2961 30.164 69.51 32.874 66.103 32.874C62.615 32.874 59.778 30.036 59.778 26.549C59.778 23.062 62.6141 20.224 66.1021 20.224ZM82.84 32.047C85.872 32.047 88.338 29.581 88.338 26.549C88.338 23.517 85.872 21.051 82.84 21.051C79.808 21.051 77.342 23.517 77.342 26.549C77.342 29.581 79.809 32.047 82.84 32.047ZM66.1021 32.047C69.1341 32.047 71.6 29.581 71.6 26.549C71.6 23.517 69.1341 21.051 66.1021 21.051C63.0711 21.051 60.6041 23.517 60.6041 26.549C60.6041 29.581 63.0711 32.047 66.1021 32.047Z" fill="white"/>
<path d="M79.9821 58.336V50.789C83.6821 49.772 87.8941 47.281 91.0601 44.906L79.9821 58.336Z" fill="#F9AFAB"/>
<path d="M33.493 187.346L36.91 186.878L40.145 160.056H36.785L33.493 187.346Z" fill="#EBEDF4"/>
<path d="M42.567 84.847L39.6 90.5351H55.4141L42.567 84.847Z" fill="#FCBEB7"/>
<path d="M72.8571 233.867V246.113C72.8571 247.541 71.6991 248.699 70.2711 248.699H35.537C35.207 248.699 34.939 248.431 34.939 248.101V245.844C34.939 244.755 35.574 243.766 36.564 243.312L56.6481 233.867H72.8571Z" fill="#2F3D6C"/>
<path d="M72.8571 226.9L72.848 233.867H56.649L55.528 226.9H72.8571Z" fill="#FCBEB7"/>
<path d="M80.0101 51.219L58.017 61.153C54.993 62.519 52.5321 64.886 51.05 67.855L42.567 84.847L55.4141 90.535L54.35 128.095H118.37L115.575 93.016L127.153 93.091V73.898C127.153 67.953 123.581 62.591 118.095 60.3L96.3441 51.218C96.3431 51.219 86.8411 57.454 80.0101 51.219Z" fill="#89AEFF"/>
<path d="M75.429 53.2071C78.738 55.8821 82.828 57.3341 87.142 57.3341C91.711 57.3341 96.1771 55.5561 99.5811 52.5701L100.281 52.8621C96.7251 56.0701 91.9681 57.9961 87.1431 57.9961C82.5601 57.9961 78.219 56.4121 74.748 53.5031L75.429 53.2071Z" fill="white"/>
<path d="M38.77 233.867V246.113C38.77 247.541 37.612 248.699 36.184 248.699H1.45001C1.11901 248.699 0.852051 248.431 0.852051 248.101V245.844C0.852051 244.755 1.48705 243.766 2.47705 243.312L22.561 233.867H38.77Z" fill="#2F3D6C"/>
<path d="M38.77 226.9L38.762 233.867H22.5621L21.442 226.9H38.77Z" fill="#FCBEB7"/>
<path d="M84.285 128.095L84.2861 128.749C84.2991 145.2 70.966 158.543 54.514 158.543H40.684L38.77 226.899H21.441L8.66405 145.397C7.23905 136.309 14.266 128.095 23.465 128.095H84.285Z" fill="#6277D7"/>
<path d="M8.48102 143.113C9.97302 145.296 12.484 146.729 15.329 146.729C19.91 146.729 23.623 143.016 23.623 138.435C23.623 134.036 20.1991 130.437 15.8701 130.159C11.4011 132.793 8.45702 137.672 8.48102 143.113Z" fill="#4A5EA3"/>
<path d="M42.569 142.793L40.684 158.544H52.0311L42.569 142.793Z" fill="#4A5EA3"/>
<path d="M118.372 128.095V128.749C118.385 145.2 105.052 158.543 88.6 158.543H74.77L72.856 226.899H55.527L42.7501 145.397C41.3251 136.309 48.352 128.095 57.551 128.095H118.372Z" fill="#6277D7"/>
<path d="M127.152 93.0911L126.536 114.364C126.37 120.113 121.661 124.688 115.909 124.688H78.8781L76.392 116.027L109.056 110.643L109.287 92.9751L127.152 93.0911Z" fill="#FCBEB7"/>
<path d="M116.17 120.264C116.17 121.945 116.926 123.451 118.117 124.458C121.945 123.649 125.021 120.78 126.112 117.049C125.115 115.67 123.493 114.773 121.661 114.773C118.628 114.773 116.17 117.231 116.17 120.264Z" fill="#F9AFAB"/>
<path d="M109.287 92.9761L104.272 111.432L109.056 110.643L109.287 92.9761Z" fill="#4A62D3"/>
<path d="M80.955 115.275L86.793 124.688H78.8781L76.392 116.027L80.955 115.275Z" fill="#F9AFAB"/>
<path d="M17.322 90.535H65.608C67.66 90.535 69.464 91.894 70.03 93.866L78.8781 124.687H98.4581C99.3991 124.687 100.162 125.45 100.162 126.391C100.162 127.332 99.3991 128.095 98.4581 128.095H79.856H73.941H21.9971L12.9 96.405C12.056 93.465 14.263 90.535 17.322 90.535Z" fill="#4A5EA3"/>
<path d="M42.569 142.793C44.03 145.155 46.644 146.728 49.626 146.728C54.207 146.728 57.92 143.015 57.92 138.434C57.92 133.97 54.3941 130.329 49.9741 130.147C45.5821 132.729 42.659 137.475 42.569 142.793Z" fill="#4A5EA3"/>
<path d="M42.0267 110.672C41.9001 109.232 42.5968 107.995 43.5827 107.908C44.5686 107.822 45.4705 108.918 45.5971 110.358C45.7236 111.797 45.027 113.034 44.041 113.121C43.0551 113.207 42.1532 112.111 42.0267 110.672Z" fill="#89AEFF"/>
<path d="M117.439 68.1121C117.439 70.7941 119.614 72.9691 122.296 72.9691C124.231 72.9691 125.9 71.8381 126.681 70.2021C125.995 67.5511 124.582 65.1501 122.62 63.2671C122.513 63.2601 122.405 63.2561 122.296 63.2561C119.613 63.2551 117.439 65.4301 117.439 68.1121Z" fill="#4A62D3"/>
<path d="M51.35 67.2861C52.124 67.8071 53.056 68.1111 54.059 68.1111C56.741 68.1111 58.915 65.9361 58.915 63.2541C58.915 62.4391 58.715 61.6711 58.36 60.9971L58.017 61.1521C55.188 62.4301 52.853 64.5841 51.35 67.2861Z" fill="#4A62D3"/>
</svg>
