<svg width="486" height="430" viewBox="0 0 486 430" fill="none" xmlns="http://www.w3.org/2000/svg">
<rect width="486" height="430" fill="#BBADA1"/>
<line x1="44" y1="62" x2="147" y2="62" stroke="white" stroke-width="6"/>
<path d="M44.34 94.6C48.428 94.6 51.564 95.384 53.748 96.952C55.96 98.492 57.066 100.802 57.066 103.882C57.066 105.562 56.758 107.004 56.142 108.208C55.554 109.384 54.686 110.35 53.538 111.106C52.418 111.834 51.046 112.366 49.422 112.702C47.798 113.038 45.964 113.206 43.92 113.206H40.686V124H36.612V95.314C37.76 95.034 39.034 94.852 40.434 94.768C41.862 94.656 43.164 94.6 44.34 94.6ZM44.676 98.17C42.94 98.17 41.61 98.212 40.686 98.296V109.72H43.752C45.152 109.72 46.412 109.636 47.532 109.468C48.652 109.272 49.59 108.964 50.346 108.544C51.13 108.096 51.732 107.494 52.152 106.738C52.572 105.982 52.782 105.016 52.782 103.84C52.782 102.72 52.558 101.796 52.11 101.068C51.69 100.34 51.102 99.766 50.346 99.346C49.618 98.898 48.764 98.59 47.784 98.422C46.804 98.254 45.768 98.17 44.676 98.17ZM80.2884 113.08C80.2884 114.816 80.0364 116.384 79.5324 117.784C79.0284 119.184 78.3144 120.388 77.3904 121.396C76.4944 122.404 75.4164 123.188 74.1564 123.748C72.8964 124.28 71.5244 124.546 70.0404 124.546C68.5564 124.546 67.1844 124.28 65.9244 123.748C64.6644 123.188 63.5724 122.404 62.6484 121.396C61.7524 120.388 61.0524 119.184 60.5484 117.784C60.0444 116.384 59.7924 114.816 59.7924 113.08C59.7924 111.372 60.0444 109.818 60.5484 108.418C61.0524 106.99 61.7524 105.772 62.6484 104.764C63.5724 103.756 64.6644 102.986 65.9244 102.454C67.1844 101.894 68.5564 101.614 70.0404 101.614C71.5244 101.614 72.8964 101.894 74.1564 102.454C75.4164 102.986 76.4944 103.756 77.3904 104.764C78.3144 105.772 79.0284 106.99 79.5324 108.418C80.0364 109.818 80.2884 111.372 80.2884 113.08ZM76.2144 113.08C76.2144 110.616 75.6544 108.67 74.5344 107.242C73.4424 105.786 71.9444 105.058 70.0404 105.058C68.1364 105.058 66.6244 105.786 65.5044 107.242C64.4124 108.67 63.8664 110.616 63.8664 113.08C63.8664 115.544 64.4124 117.504 65.5044 118.96C66.6244 120.388 68.1364 121.102 70.0404 121.102C71.9444 121.102 73.4424 120.388 74.5344 118.96C75.6544 117.504 76.2144 115.544 76.2144 113.08ZM93.8478 101.698C94.1838 101.698 94.5618 101.726 94.9818 101.782C95.4298 101.81 95.8638 101.866 96.2838 101.95C96.7038 102.006 97.0818 102.076 97.4178 102.16C97.7818 102.216 98.0478 102.272 98.2158 102.328L97.5438 105.73C97.2358 105.618 96.7178 105.492 95.9898 105.352C95.2898 105.184 94.3798 105.1 93.2598 105.1C92.5318 105.1 91.8038 105.184 91.0758 105.352C90.3758 105.492 89.9138 105.59 89.6898 105.646V124H85.7838V103.084C86.7078 102.748 87.8558 102.44 89.2278 102.16C90.5998 101.852 92.1398 101.698 93.8478 101.698ZM114.562 113.122C114.562 114.242 114.674 115.292 114.898 116.272C115.122 117.224 115.486 118.064 115.99 118.792C116.494 119.492 117.138 120.052 117.922 120.472C118.734 120.864 119.7 121.06 120.82 121.06C121.884 121.06 122.864 120.878 123.76 120.514C124.656 120.15 125.342 119.772 125.818 119.38V105.604C125.426 105.492 124.894 105.394 124.222 105.31C123.578 105.226 122.668 105.184 121.492 105.184C119.392 105.184 117.712 105.87 116.452 107.242C115.192 108.614 114.562 110.574 114.562 113.122ZM110.488 113.122C110.488 111.358 110.74 109.776 111.244 108.376C111.776 106.948 112.518 105.744 113.47 104.764C114.422 103.784 115.57 103.028 116.914 102.496C118.258 101.964 119.77 101.698 121.45 101.698C123.27 101.698 124.866 101.838 126.238 102.118C127.638 102.37 128.8 102.608 129.724 102.832V131.77H125.818V123.034C125.342 123.342 124.614 123.664 123.634 124C122.682 124.336 121.576 124.504 120.316 124.504C118.748 124.504 117.348 124.224 116.116 123.664C114.912 123.104 113.89 122.32 113.05 121.312C112.21 120.304 111.566 119.1 111.118 117.7C110.698 116.3 110.488 114.774 110.488 113.122ZM153.826 123.37C152.93 123.594 151.74 123.832 150.256 124.084C148.8 124.336 147.106 124.462 145.174 124.462C143.494 124.462 142.08 124.224 140.932 123.748C139.784 123.244 138.86 122.544 138.16 121.648C137.46 120.752 136.956 119.702 136.648 118.498C136.34 117.266 136.186 115.908 136.186 114.424V102.16H140.092V113.584C140.092 116.244 140.512 118.148 141.352 119.296C142.192 120.444 143.606 121.018 145.594 121.018C146.014 121.018 146.448 121.004 146.896 120.976C147.344 120.948 147.764 120.92 148.156 120.892C148.548 120.836 148.898 120.794 149.206 120.766C149.542 120.71 149.78 120.654 149.92 120.598V102.16H153.826V123.37ZM159.337 113.122C159.337 111.19 159.617 109.51 160.177 108.082C160.737 106.626 161.479 105.422 162.403 104.47C163.327 103.518 164.391 102.804 165.595 102.328C166.799 101.852 168.031 101.614 169.291 101.614C172.231 101.614 174.485 102.538 176.053 104.386C177.621 106.206 178.405 108.992 178.405 112.744C178.405 112.912 178.405 113.136 178.405 113.416C178.405 113.668 178.391 113.906 178.363 114.13H163.411C163.579 116.398 164.237 118.12 165.385 119.296C166.533 120.472 168.325 121.06 170.761 121.06C172.133 121.06 173.281 120.948 174.205 120.724C175.157 120.472 175.871 120.234 176.347 120.01L176.893 123.286C176.417 123.538 175.577 123.804 174.373 124.084C173.197 124.364 171.853 124.504 170.341 124.504C168.437 124.504 166.785 124.224 165.385 123.664C164.013 123.076 162.879 122.278 161.983 121.27C161.087 120.262 160.415 119.072 159.967 117.7C159.547 116.3 159.337 114.774 159.337 113.122ZM174.331 110.98C174.359 109.216 173.911 107.774 172.987 106.654C172.091 105.506 170.845 104.932 169.249 104.932C168.353 104.932 167.555 105.114 166.855 105.478C166.183 105.814 165.609 106.262 165.133 106.822C164.657 107.382 164.279 108.026 163.999 108.754C163.747 109.482 163.579 110.224 163.495 110.98H174.331ZM169.207 91.702L174.919 97.708L173.281 99.556L169.207 95.86L165.133 99.556L163.495 97.708L169.207 91.702ZM193.737 102.79C194.633 102.566 195.809 102.328 197.265 102.076C198.749 101.824 200.457 101.698 202.389 101.698C203.789 101.698 204.965 101.894 205.917 102.286C206.869 102.65 207.667 103.196 208.311 103.924C208.507 103.784 208.815 103.588 209.235 103.336C209.655 103.084 210.173 102.846 210.789 102.622C211.405 102.37 212.091 102.16 212.847 101.992C213.603 101.796 214.415 101.698 215.283 101.698C216.963 101.698 218.335 101.95 219.399 102.454C220.463 102.93 221.289 103.616 221.877 104.512C222.493 105.408 222.899 106.472 223.095 107.704C223.319 108.936 223.431 110.28 223.431 111.736V124H219.525V112.576C219.525 111.288 219.455 110.182 219.315 109.258C219.203 108.334 218.965 107.564 218.601 106.948C218.265 106.332 217.789 105.884 217.173 105.604C216.585 105.296 215.815 105.142 214.863 105.142C213.547 105.142 212.455 105.324 211.587 105.688C210.747 106.024 210.173 106.332 209.865 106.612C210.089 107.34 210.257 108.138 210.369 109.006C210.481 109.874 210.537 110.784 210.537 111.736V124H206.631V112.576C206.631 111.288 206.561 110.182 206.421 109.258C206.281 108.334 206.029 107.564 205.665 106.948C205.329 106.332 204.853 105.884 204.237 105.604C203.649 105.296 202.893 105.142 201.969 105.142C201.577 105.142 201.157 105.156 200.709 105.184C200.261 105.212 199.827 105.254 199.407 105.31C199.015 105.338 198.651 105.38 198.315 105.436C197.979 105.492 197.755 105.534 197.643 105.562V124H193.737V102.79ZM228.695 113.122C228.695 111.19 228.975 109.51 229.535 108.082C230.095 106.626 230.837 105.422 231.761 104.47C232.685 103.518 233.749 102.804 234.953 102.328C236.157 101.852 237.389 101.614 238.649 101.614C241.589 101.614 243.843 102.538 245.411 104.386C246.979 106.206 247.763 108.992 247.763 112.744C247.763 112.912 247.763 113.136 247.763 113.416C247.763 113.668 247.749 113.906 247.721 114.13H232.769C232.937 116.398 233.595 118.12 234.743 119.296C235.891 120.472 237.683 121.06 240.119 121.06C241.491 121.06 242.639 120.948 243.563 120.724C244.515 120.472 245.229 120.234 245.705 120.01L246.251 123.286C245.775 123.538 244.935 123.804 243.731 124.084C242.555 124.364 241.211 124.504 239.699 124.504C237.795 124.504 236.143 124.224 234.743 123.664C233.371 123.076 232.237 122.278 231.341 121.27C230.445 120.262 229.773 119.072 229.325 117.7C228.905 116.3 228.695 114.774 228.695 113.122ZM243.689 110.98C243.717 109.216 243.269 107.774 242.345 106.654C241.449 105.506 240.203 104.932 238.607 104.932C237.711 104.932 236.913 105.114 236.213 105.478C235.541 105.814 234.967 106.262 234.491 106.822C234.015 107.382 233.637 108.026 233.357 108.754C233.105 109.482 232.937 110.224 232.853 110.98H243.689ZM261.876 113.122C261.876 111.19 262.156 109.51 262.716 108.082C263.276 106.626 264.018 105.422 264.942 104.47C265.866 103.518 266.93 102.804 268.134 102.328C269.338 101.852 270.57 101.614 271.83 101.614C274.77 101.614 277.024 102.538 278.592 104.386C280.16 106.206 280.944 108.992 280.944 112.744C280.944 112.912 280.944 113.136 280.944 113.416C280.944 113.668 280.93 113.906 280.902 114.13H265.95C266.118 116.398 266.776 118.12 267.924 119.296C269.072 120.472 270.864 121.06 273.3 121.06C274.672 121.06 275.82 120.948 276.744 120.724C277.696 120.472 278.41 120.234 278.886 120.01L279.432 123.286C278.956 123.538 278.116 123.804 276.912 124.084C275.736 124.364 274.392 124.504 272.88 124.504C270.976 124.504 269.324 124.224 267.924 123.664C266.552 123.076 265.418 122.278 264.522 121.27C263.626 120.262 262.954 119.072 262.506 117.7C262.086 116.3 261.876 114.774 261.876 113.122ZM276.87 110.98C276.898 109.216 276.45 107.774 275.526 106.654C274.63 105.506 273.384 104.932 271.788 104.932C270.892 104.932 270.094 105.114 269.394 105.478C268.722 105.814 268.148 106.262 267.672 106.822C267.196 107.382 266.818 108.026 266.538 108.754C266.286 109.482 266.118 110.224 266.034 110.98H276.87ZM286.555 102.79C287.451 102.566 288.641 102.328 290.125 102.076C291.609 101.824 293.317 101.698 295.249 101.698C296.985 101.698 298.427 101.95 299.575 102.454C300.723 102.93 301.633 103.616 302.305 104.512C303.005 105.38 303.495 106.43 303.775 107.662C304.055 108.894 304.195 110.252 304.195 111.736V124H300.289V112.576C300.289 111.232 300.191 110.084 299.995 109.132C299.827 108.18 299.533 107.41 299.113 106.822C298.693 106.234 298.133 105.814 297.433 105.562C296.733 105.282 295.865 105.142 294.829 105.142C294.409 105.142 293.975 105.156 293.527 105.184C293.079 105.212 292.645 105.254 292.225 105.31C291.833 105.338 291.469 105.38 291.133 105.436C290.825 105.492 290.601 105.534 290.461 105.562V124H286.555V102.79ZM320.165 124.504C318.401 124.504 316.847 124.224 315.503 123.664C314.187 123.104 313.067 122.32 312.143 121.312C311.247 120.304 310.575 119.114 310.127 117.742C309.679 116.342 309.455 114.802 309.455 113.122C309.455 111.442 309.693 109.902 310.169 108.502C310.673 107.102 311.373 105.898 312.269 104.89C313.165 103.854 314.257 103.056 315.545 102.496C316.861 101.908 318.317 101.614 319.913 101.614C320.893 101.614 321.873 101.698 322.853 101.866C323.833 102.034 324.771 102.3 325.667 102.664L324.785 105.982C324.197 105.702 323.511 105.478 322.727 105.31C321.971 105.142 321.159 105.058 320.291 105.058C318.107 105.058 316.427 105.744 315.251 107.116C314.103 108.488 313.529 110.49 313.529 113.122C313.529 114.298 313.655 115.376 313.907 116.356C314.187 117.336 314.607 118.176 315.167 118.876C315.755 119.576 316.497 120.122 317.393 120.514C318.289 120.878 319.381 121.06 320.669 121.06C321.705 121.06 322.643 120.962 323.483 120.766C324.323 120.57 324.981 120.36 325.457 120.136L326.003 123.412C325.779 123.552 325.457 123.692 325.037 123.832C324.617 123.944 324.141 124.042 323.609 124.126C323.077 124.238 322.503 124.322 321.887 124.378C321.299 124.462 320.725 124.504 320.165 124.504ZM337.588 121.186C338.512 121.186 339.324 121.172 340.024 121.144C340.752 121.088 341.354 121.004 341.83 120.892V114.382C341.55 114.242 341.088 114.13 340.444 114.046C339.828 113.934 339.072 113.878 338.176 113.878C337.588 113.878 336.958 113.92 336.286 114.004C335.642 114.088 335.04 114.27 334.48 114.55C333.948 114.802 333.5 115.166 333.136 115.642C332.772 116.09 332.59 116.692 332.59 117.448C332.59 118.848 333.038 119.828 333.934 120.388C334.83 120.92 336.048 121.186 337.588 121.186ZM337.252 101.614C338.82 101.614 340.136 101.824 341.2 102.244C342.292 102.636 343.16 103.21 343.804 103.966C344.476 104.694 344.952 105.576 345.232 106.612C345.512 107.62 345.652 108.74 345.652 109.972V123.622C345.316 123.678 344.84 123.762 344.224 123.874C343.636 123.958 342.964 124.042 342.208 124.126C341.452 124.21 340.626 124.28 339.73 124.336C338.862 124.42 337.994 124.462 337.126 124.462C335.894 124.462 334.76 124.336 333.724 124.084C332.688 123.832 331.792 123.44 331.036 122.908C330.28 122.348 329.692 121.62 329.272 120.724C328.852 119.828 328.642 118.75 328.642 117.49C328.642 116.286 328.88 115.25 329.356 114.382C329.86 113.514 330.532 112.814 331.372 112.282C332.212 111.75 333.192 111.358 334.312 111.106C335.432 110.854 336.608 110.728 337.84 110.728C338.232 110.728 338.638 110.756 339.058 110.812C339.478 110.84 339.87 110.896 340.234 110.98C340.626 111.036 340.962 111.092 341.242 111.148C341.522 111.204 341.718 111.246 341.83 111.274V110.182C341.83 109.538 341.76 108.908 341.62 108.292C341.48 107.648 341.228 107.088 340.864 106.612C340.5 106.108 339.996 105.716 339.352 105.436C338.736 105.128 337.924 104.974 336.916 104.974C335.628 104.974 334.494 105.072 333.514 105.268C332.562 105.436 331.848 105.618 331.372 105.814L330.91 102.58C331.414 102.356 332.254 102.146 333.43 101.95C334.606 101.726 335.88 101.614 337.252 101.614ZM356.045 124H352.139V102.16H356.045V124ZM354.071 98.212C353.371 98.212 352.769 97.988 352.265 97.54C351.789 97.064 351.551 96.434 351.551 95.65C351.551 94.866 351.789 94.25 352.265 93.802C352.769 93.326 353.371 93.088 354.071 93.088C354.771 93.088 355.359 93.326 355.835 93.802C356.339 94.25 356.591 94.866 356.591 95.65C356.591 96.434 356.339 97.064 355.835 97.54C355.359 97.988 354.771 98.212 354.071 98.212ZM375.824 124C375.516 123.384 375.138 122.698 374.69 121.942C374.242 121.186 373.752 120.416 373.22 119.632C372.688 118.82 372.142 118.022 371.582 117.238C371.022 116.454 370.476 115.712 369.944 115.012C369.412 115.712 368.866 116.468 368.306 117.28C367.746 118.064 367.2 118.862 366.668 119.674C366.164 120.458 365.688 121.228 365.24 121.984C364.792 122.74 364.414 123.412 364.106 124H360.074C361.054 122.096 362.216 120.164 363.56 118.204C364.932 116.216 366.29 114.326 367.634 112.534L360.41 102.16H364.82L370.028 109.804L375.278 102.16H379.436L372.38 112.282C373.724 114.102 375.096 116.034 376.496 118.078C377.924 120.094 379.128 122.068 380.108 124H375.824ZM402.589 113.08C402.589 114.816 402.337 116.384 401.833 117.784C401.329 119.184 400.615 120.388 399.691 121.396C398.795 122.404 397.717 123.188 396.457 123.748C395.197 124.28 393.825 124.546 392.341 124.546C390.857 124.546 389.485 124.28 388.225 123.748C386.965 123.188 385.873 122.404 384.949 121.396C384.053 120.388 383.353 119.184 382.849 117.784C382.345 116.384 382.093 114.816 382.093 113.08C382.093 111.372 382.345 109.818 382.849 108.418C383.353 106.99 384.053 105.772 384.949 104.764C385.873 103.756 386.965 102.986 388.225 102.454C389.485 101.894 390.857 101.614 392.341 101.614C393.825 101.614 395.197 101.894 396.457 102.454C397.717 102.986 398.795 103.756 399.691 104.764C400.615 105.772 401.329 106.99 401.833 108.418C402.337 109.818 402.589 111.372 402.589 113.08ZM398.515 113.08C398.515 110.616 397.955 108.67 396.835 107.242C395.743 105.786 394.245 105.058 392.341 105.058C390.437 105.058 388.925 105.786 387.805 107.242C386.713 108.67 386.167 110.616 386.167 113.08C386.167 115.544 386.713 117.504 387.805 118.96C388.925 120.388 390.437 121.102 392.341 121.102C394.245 121.102 395.743 120.388 396.835 118.96C397.955 117.504 398.515 115.544 398.515 113.08ZM417.805 102.79C418.701 102.566 419.891 102.328 421.375 102.076C422.859 101.824 424.567 101.698 426.499 101.698C428.235 101.698 429.677 101.95 430.825 102.454C431.973 102.93 432.883 103.616 433.555 104.512C434.255 105.38 434.745 106.43 435.025 107.662C435.305 108.894 435.445 110.252 435.445 111.736V124H431.539V112.576C431.539 111.232 431.441 110.084 431.245 109.132C431.077 108.18 430.783 107.41 430.363 106.822C429.943 106.234 429.383 105.814 428.683 105.562C427.983 105.282 427.115 105.142 426.079 105.142C425.659 105.142 425.225 105.156 424.777 105.184C424.329 105.212 423.895 105.254 423.475 105.31C423.083 105.338 422.719 105.38 422.383 105.436C422.075 105.492 421.851 105.534 421.711 105.562V124H417.805V102.79ZM461.201 113.08C461.201 114.816 460.949 116.384 460.445 117.784C459.941 119.184 459.227 120.388 458.303 121.396C457.407 122.404 456.329 123.188 455.069 123.748C453.809 124.28 452.437 124.546 450.953 124.546C449.469 124.546 448.097 124.28 446.837 123.748C445.577 123.188 444.485 122.404 443.561 121.396C442.665 120.388 441.965 119.184 441.461 117.784C440.957 116.384 440.705 114.816 440.705 113.08C440.705 111.372 440.957 109.818 441.461 108.418C441.965 106.99 442.665 105.772 443.561 104.764C444.485 103.756 445.577 102.986 446.837 102.454C448.097 101.894 449.469 101.614 450.953 101.614C452.437 101.614 453.809 101.894 455.069 102.454C456.329 102.986 457.407 103.756 458.303 104.764C459.227 105.772 459.941 106.99 460.445 108.418C460.949 109.818 461.201 111.372 461.201 113.08ZM457.127 113.08C457.127 110.616 456.567 108.67 455.447 107.242C454.355 105.786 452.857 105.058 450.953 105.058C449.049 105.058 447.537 105.786 446.417 107.242C445.325 108.67 444.779 110.616 444.779 113.08C444.779 115.544 445.325 117.504 446.417 118.96C447.537 120.388 449.049 121.102 450.953 121.102C452.857 121.102 454.355 120.388 455.447 118.96C456.567 117.504 457.127 115.544 457.127 113.08ZM36.612 172V142.894H54.378V146.38H40.686V155.032H52.866V158.434H40.686V168.514H55.428V172H36.612ZM75.2894 162.634C75.2894 164.034 75.1354 165.336 74.8274 166.54C74.5474 167.744 74.0294 168.808 73.2734 169.732C72.5454 170.628 71.5514 171.342 70.2914 171.874C69.0594 172.378 67.5054 172.63 65.6294 172.63C64.6774 172.63 63.7954 172.546 62.9834 172.378C62.1994 172.238 61.4854 172.056 60.8414 171.832C60.1974 171.58 59.6374 171.328 59.1614 171.076C58.6854 170.796 58.3074 170.53 58.0274 170.278L59.6234 167.044C60.2114 167.464 60.9674 167.912 61.8914 168.388C62.8434 168.836 64.0194 169.06 65.4194 169.06C67.4354 169.06 68.9054 168.556 69.8294 167.548C70.7534 166.512 71.2154 164.748 71.2154 162.256V142.894H75.2894V162.634ZM82.3034 172V142.894H100.069V146.38H86.3774V155.032H98.5574V158.434H86.3774V168.514H101.119V172H82.3034ZM117.624 172.63C115.58 172.63 113.718 172.294 112.038 171.622C110.358 170.95 108.916 169.97 107.712 168.682C106.508 167.394 105.57 165.812 104.898 163.936C104.254 162.032 103.932 159.862 103.932 157.426C103.932 154.99 104.296 152.834 105.024 150.958C105.78 149.054 106.788 147.458 108.048 146.17C109.308 144.882 110.778 143.902 112.458 143.23C114.138 142.558 115.93 142.222 117.834 142.222C119.038 142.222 120.116 142.306 121.068 142.474C122.048 142.642 122.888 142.838 123.588 143.062C124.316 143.286 124.904 143.51 125.352 143.734C125.8 143.958 126.108 144.126 126.276 144.238L125.1 147.598C124.848 147.43 124.484 147.248 124.008 147.052C123.532 146.856 122.986 146.66 122.37 146.464C121.782 146.268 121.124 146.114 120.396 146.002C119.696 145.862 118.982 145.792 118.254 145.792C116.714 145.792 115.328 146.058 114.096 146.59C112.864 147.122 111.814 147.892 110.946 148.9C110.078 149.908 109.406 151.14 108.93 152.596C108.482 154.024 108.258 155.634 108.258 157.426C108.258 159.162 108.454 160.744 108.846 162.172C109.266 163.6 109.882 164.832 110.694 165.868C111.506 166.876 112.514 167.66 113.718 168.22C114.95 168.78 116.378 169.06 118.002 169.06C119.878 169.06 121.432 168.864 122.664 168.472C123.896 168.08 124.82 167.73 125.436 167.422L126.486 170.782C126.29 170.922 125.94 171.104 125.436 171.328C124.932 171.524 124.302 171.72 123.546 171.916C122.79 172.112 121.908 172.28 120.9 172.42C119.892 172.56 118.8 172.63 117.624 172.63ZM151.296 142.894V146.422H142.14V172H138.066V146.422H128.91V142.894H151.296ZM160.238 145.498C158.39 145.498 156.584 145.974 154.82 146.926L153.728 143.902C154.68 143.398 155.744 142.992 156.92 142.684C158.124 142.376 159.398 142.222 160.742 142.222C162.338 142.222 163.64 142.446 164.648 142.894C165.684 143.314 166.51 143.86 167.126 144.532C167.742 145.204 168.162 145.96 168.386 146.8C168.638 147.612 168.764 148.396 168.764 149.152C168.764 150.104 168.582 150.958 168.218 151.714C167.854 152.442 167.406 153.128 166.874 153.772C166.342 154.416 165.754 155.032 165.11 155.62C164.466 156.208 163.878 156.824 163.346 157.468C162.814 158.084 162.366 158.77 162.002 159.526C161.638 160.254 161.456 161.08 161.456 162.004C161.456 162.144 161.456 162.298 161.456 162.466C161.456 162.634 161.47 162.788 161.498 162.928H158.222C158.11 162.368 158.054 161.78 158.054 161.164C158.054 160.268 158.208 159.456 158.516 158.728C158.852 158 159.272 157.328 159.776 156.712C160.28 156.068 160.812 155.48 161.372 154.948C161.932 154.388 162.464 153.828 162.968 153.268C163.472 152.708 163.878 152.12 164.186 151.504C164.522 150.888 164.69 150.216 164.69 149.488C164.69 148.312 164.312 147.36 163.556 146.632C162.8 145.876 161.694 145.498 160.238 145.498ZM162.884 169.732C162.884 170.488 162.632 171.146 162.128 171.706C161.624 172.266 160.938 172.546 160.07 172.546C159.202 172.546 158.516 172.266 158.012 171.706C157.508 171.146 157.256 170.488 157.256 169.732C157.256 168.976 157.508 168.318 158.012 167.758C158.516 167.198 159.202 166.918 160.07 166.918C160.938 166.918 161.624 167.198 162.128 167.758C162.632 168.318 162.884 168.976 162.884 169.732Z" fill="#1B2338"/>
</svg>
