<svg width="486" height="430" viewBox="0 0 486 430" fill="none" xmlns="http://www.w3.org/2000/svg">
<rect width="486" height="430" fill="#BBADA1"/>
<line x1="44" y1="62" x2="147" y2="62" stroke="white" stroke-width="6"/>
<path d="M44.34 94.6C48.428 94.6 51.564 95.384 53.748 96.952C55.96 98.492 57.066 100.802 57.066 103.882C57.066 105.562 56.758 107.004 56.142 108.208C55.554 109.384 54.686 110.35 53.538 111.106C52.418 111.834 51.046 112.366 49.422 112.702C47.798 113.038 45.964 113.206 43.92 113.206H40.686V124H36.612V95.314C37.76 95.034 39.034 94.852 40.434 94.768C41.862 94.656 43.164 94.6 44.34 94.6ZM44.676 98.17C42.94 98.17 41.61 98.212 40.686 98.296V109.72H43.752C45.152 109.72 46.412 109.636 47.532 109.468C48.652 109.272 49.59 108.964 50.346 108.544C51.13 108.096 51.732 107.494 52.152 106.738C52.572 105.982 52.782 105.016 52.782 103.84C52.782 102.72 52.558 101.796 52.11 101.068C51.69 100.34 51.102 99.766 50.346 99.346C49.618 98.898 48.764 98.59 47.784 98.422C46.804 98.254 45.768 98.17 44.676 98.17ZM80.2884 113.08C80.2884 114.816 80.0364 116.384 79.5324 117.784C79.0284 119.184 78.3144 120.388 77.3904 121.396C76.4944 122.404 75.4164 123.188 74.1564 123.748C72.8964 124.28 71.5244 124.546 70.0404 124.546C68.5564 124.546 67.1844 124.28 65.9244 123.748C64.6644 123.188 63.5724 122.404 62.6484 121.396C61.7524 120.388 61.0524 119.184 60.5484 117.784C60.0444 116.384 59.7924 114.816 59.7924 113.08C59.7924 111.372 60.0444 109.818 60.5484 108.418C61.0524 106.99 61.7524 105.772 62.6484 104.764C63.5724 103.756 64.6644 102.986 65.9244 102.454C67.1844 101.894 68.5564 101.614 70.0404 101.614C71.5244 101.614 72.8964 101.894 74.1564 102.454C75.4164 102.986 76.4944 103.756 77.3904 104.764C78.3144 105.772 79.0284 106.99 79.5324 108.418C80.0364 109.818 80.2884 111.372 80.2884 113.08ZM76.2144 113.08C76.2144 110.616 75.6544 108.67 74.5344 107.242C73.4424 105.786 71.9444 105.058 70.0404 105.058C68.1364 105.058 66.6244 105.786 65.5044 107.242C64.4124 108.67 63.8664 110.616 63.8664 113.08C63.8664 115.544 64.4124 117.504 65.5044 118.96C66.6244 120.388 68.1364 121.102 70.0404 121.102C71.9444 121.102 73.4424 120.388 74.5344 118.96C75.6544 117.504 76.2144 115.544 76.2144 113.08ZM93.8478 101.698C94.1838 101.698 94.5618 101.726 94.9818 101.782C95.4298 101.81 95.8638 101.866 96.2838 101.95C96.7038 102.006 97.0818 102.076 97.4178 102.16C97.7818 102.216 98.0478 102.272 98.2158 102.328L97.5438 105.73C97.2358 105.618 96.7178 105.492 95.9898 105.352C95.2898 105.184 94.3798 105.1 93.2598 105.1C92.5318 105.1 91.8038 105.184 91.0758 105.352C90.3758 105.492 89.9138 105.59 89.6898 105.646V124H85.7838V103.084C86.7078 102.748 87.8558 102.44 89.2278 102.16C90.5998 101.852 92.1398 101.698 93.8478 101.698ZM114.562 113.122C114.562 114.242 114.674 115.292 114.898 116.272C115.122 117.224 115.486 118.064 115.99 118.792C116.494 119.492 117.138 120.052 117.922 120.472C118.734 120.864 119.7 121.06 120.82 121.06C121.884 121.06 122.864 120.878 123.76 120.514C124.656 120.15 125.342 119.772 125.818 119.38V105.604C125.426 105.492 124.894 105.394 124.222 105.31C123.578 105.226 122.668 105.184 121.492 105.184C119.392 105.184 117.712 105.87 116.452 107.242C115.192 108.614 114.562 110.574 114.562 113.122ZM110.488 113.122C110.488 111.358 110.74 109.776 111.244 108.376C111.776 106.948 112.518 105.744 113.47 104.764C114.422 103.784 115.57 103.028 116.914 102.496C118.258 101.964 119.77 101.698 121.45 101.698C123.27 101.698 124.866 101.838 126.238 102.118C127.638 102.37 128.8 102.608 129.724 102.832V131.77H125.818V123.034C125.342 123.342 124.614 123.664 123.634 124C122.682 124.336 121.576 124.504 120.316 124.504C118.748 124.504 117.348 124.224 116.116 123.664C114.912 123.104 113.89 122.32 113.05 121.312C112.21 120.304 111.566 119.1 111.118 117.7C110.698 116.3 110.488 114.774 110.488 113.122ZM153.826 123.37C152.93 123.594 151.74 123.832 150.256 124.084C148.8 124.336 147.106 124.462 145.174 124.462C143.494 124.462 142.08 124.224 140.932 123.748C139.784 123.244 138.86 122.544 138.16 121.648C137.46 120.752 136.956 119.702 136.648 118.498C136.34 117.266 136.186 115.908 136.186 114.424V102.16H140.092V113.584C140.092 116.244 140.512 118.148 141.352 119.296C142.192 120.444 143.606 121.018 145.594 121.018C146.014 121.018 146.448 121.004 146.896 120.976C147.344 120.948 147.764 120.92 148.156 120.892C148.548 120.836 148.898 120.794 149.206 120.766C149.542 120.71 149.78 120.654 149.92 120.598V102.16H153.826V123.37ZM159.337 113.122C159.337 111.19 159.617 109.51 160.177 108.082C160.737 106.626 161.479 105.422 162.403 104.47C163.327 103.518 164.391 102.804 165.595 102.328C166.799 101.852 168.031 101.614 169.291 101.614C172.231 101.614 174.485 102.538 176.053 104.386C177.621 106.206 178.405 108.992 178.405 112.744C178.405 112.912 178.405 113.136 178.405 113.416C178.405 113.668 178.391 113.906 178.363 114.13H163.411C163.579 116.398 164.237 118.12 165.385 119.296C166.533 120.472 168.325 121.06 170.761 121.06C172.133 121.06 173.281 120.948 174.205 120.724C175.157 120.472 175.871 120.234 176.347 120.01L176.893 123.286C176.417 123.538 175.577 123.804 174.373 124.084C173.197 124.364 171.853 124.504 170.341 124.504C168.437 124.504 166.785 124.224 165.385 123.664C164.013 123.076 162.879 122.278 161.983 121.27C161.087 120.262 160.415 119.072 159.967 117.7C159.547 116.3 159.337 114.774 159.337 113.122ZM174.331 110.98C174.359 109.216 173.911 107.774 172.987 106.654C172.091 105.506 170.845 104.932 169.249 104.932C168.353 104.932 167.555 105.114 166.855 105.478C166.183 105.814 165.609 106.262 165.133 106.822C164.657 107.382 164.279 108.026 163.999 108.754C163.747 109.482 163.579 110.224 163.495 110.98H174.331ZM169.207 91.702L174.919 97.708L173.281 99.556L169.207 95.86L165.133 99.556L163.495 97.708L169.207 91.702ZM193.737 102.79C194.633 102.566 195.809 102.328 197.265 102.076C198.749 101.824 200.457 101.698 202.389 101.698C203.789 101.698 204.965 101.894 205.917 102.286C206.869 102.65 207.667 103.196 208.311 103.924C208.507 103.784 208.815 103.588 209.235 103.336C209.655 103.084 210.173 102.846 210.789 102.622C211.405 102.37 212.091 102.16 212.847 101.992C213.603 101.796 214.415 101.698 215.283 101.698C216.963 101.698 218.335 101.95 219.399 102.454C220.463 102.93 221.289 103.616 221.877 104.512C222.493 105.408 222.899 106.472 223.095 107.704C223.319 108.936 223.431 110.28 223.431 111.736V124H219.525V112.576C219.525 111.288 219.455 110.182 219.315 109.258C219.203 108.334 218.965 107.564 218.601 106.948C218.265 106.332 217.789 105.884 217.173 105.604C216.585 105.296 215.815 105.142 214.863 105.142C213.547 105.142 212.455 105.324 211.587 105.688C210.747 106.024 210.173 106.332 209.865 106.612C210.089 107.34 210.257 108.138 210.369 109.006C210.481 109.874 210.537 110.784 210.537 111.736V124H206.631V112.576C206.631 111.288 206.561 110.182 206.421 109.258C206.281 108.334 206.029 107.564 205.665 106.948C205.329 106.332 204.853 105.884 204.237 105.604C203.649 105.296 202.893 105.142 201.969 105.142C201.577 105.142 201.157 105.156 200.709 105.184C200.261 105.212 199.827 105.254 199.407 105.31C199.015 105.338 198.651 105.38 198.315 105.436C197.979 105.492 197.755 105.534 197.643 105.562V124H193.737V102.79ZM228.695 113.122C228.695 111.19 228.975 109.51 229.535 108.082C230.095 106.626 230.837 105.422 231.761 104.47C232.685 103.518 233.749 102.804 234.953 102.328C236.157 101.852 237.389 101.614 238.649 101.614C241.589 101.614 243.843 102.538 245.411 104.386C246.979 106.206 247.763 108.992 247.763 112.744C247.763 112.912 247.763 113.136 247.763 113.416C247.763 113.668 247.749 113.906 247.721 114.13H232.769C232.937 116.398 233.595 118.12 234.743 119.296C235.891 120.472 237.683 121.06 240.119 121.06C241.491 121.06 242.639 120.948 243.563 120.724C244.515 120.472 245.229 120.234 245.705 120.01L246.251 123.286C245.775 123.538 244.935 123.804 243.731 124.084C242.555 124.364 241.211 124.504 239.699 124.504C237.795 124.504 236.143 124.224 234.743 123.664C233.371 123.076 232.237 122.278 231.341 121.27C230.445 120.262 229.773 119.072 229.325 117.7C228.905 116.3 228.695 114.774 228.695 113.122ZM243.689 110.98C243.717 109.216 243.269 107.774 242.345 106.654C241.449 105.506 240.203 104.932 238.607 104.932C237.711 104.932 236.913 105.114 236.213 105.478C235.541 105.814 234.967 106.262 234.491 106.822C234.015 107.382 233.637 108.026 233.357 108.754C233.105 109.482 232.937 110.224 232.853 110.98H243.689ZM261.876 113.122C261.876 111.19 262.156 109.51 262.716 108.082C263.276 106.626 264.018 105.422 264.942 104.47C265.866 103.518 266.93 102.804 268.134 102.328C269.338 101.852 270.57 101.614 271.83 101.614C274.77 101.614 277.024 102.538 278.592 104.386C280.16 106.206 280.944 108.992 280.944 112.744C280.944 112.912 280.944 113.136 280.944 113.416C280.944 113.668 280.93 113.906 280.902 114.13H265.95C266.118 116.398 266.776 118.12 267.924 119.296C269.072 120.472 270.864 121.06 273.3 121.06C274.672 121.06 275.82 120.948 276.744 120.724C277.696 120.472 278.41 120.234 278.886 120.01L279.432 123.286C278.956 123.538 278.116 123.804 276.912 124.084C275.736 124.364 274.392 124.504 272.88 124.504C270.976 124.504 269.324 124.224 267.924 123.664C266.552 123.076 265.418 122.278 264.522 121.27C263.626 120.262 262.954 119.072 262.506 117.7C262.086 116.3 261.876 114.774 261.876 113.122ZM276.87 110.98C276.898 109.216 276.45 107.774 275.526 106.654C274.63 105.506 273.384 104.932 271.788 104.932C270.892 104.932 270.094 105.114 269.394 105.478C268.722 105.814 268.148 106.262 267.672 106.822C267.196 107.382 266.818 108.026 266.538 108.754C266.286 109.482 266.118 110.224 266.034 110.98H276.87ZM286.555 102.79C287.451 102.566 288.641 102.328 290.125 102.076C291.609 101.824 293.317 101.698 295.249 101.698C296.985 101.698 298.427 101.95 299.575 102.454C300.723 102.93 301.633 103.616 302.305 104.512C303.005 105.38 303.495 106.43 303.775 107.662C304.055 108.894 304.195 110.252 304.195 111.736V124H300.289V112.576C300.289 111.232 300.191 110.084 299.995 109.132C299.827 108.18 299.533 107.41 299.113 106.822C298.693 106.234 298.133 105.814 297.433 105.562C296.733 105.282 295.865 105.142 294.829 105.142C294.409 105.142 293.975 105.156 293.527 105.184C293.079 105.212 292.645 105.254 292.225 105.31C291.833 105.338 291.469 105.38 291.133 105.436C290.825 105.492 290.601 105.534 290.461 105.562V124H286.555V102.79ZM320.165 124.504C318.401 124.504 316.847 124.224 315.503 123.664C314.187 123.104 313.067 122.32 312.143 121.312C311.247 120.304 310.575 119.114 310.127 117.742C309.679 116.342 309.455 114.802 309.455 113.122C309.455 111.442 309.693 109.902 310.169 108.502C310.673 107.102 311.373 105.898 312.269 104.89C313.165 103.854 314.257 103.056 315.545 102.496C316.861 101.908 318.317 101.614 319.913 101.614C320.893 101.614 321.873 101.698 322.853 101.866C323.833 102.034 324.771 102.3 325.667 102.664L324.785 105.982C324.197 105.702 323.511 105.478 322.727 105.31C321.971 105.142 321.159 105.058 320.291 105.058C318.107 105.058 316.427 105.744 315.251 107.116C314.103 108.488 313.529 110.49 313.529 113.122C313.529 114.298 313.655 115.376 313.907 116.356C314.187 117.336 314.607 118.176 315.167 118.876C315.755 119.576 316.497 120.122 317.393 120.514C318.289 120.878 319.381 121.06 320.669 121.06C321.705 121.06 322.643 120.962 323.483 120.766C324.323 120.57 324.981 120.36 325.457 120.136L326.003 123.412C325.779 123.552 325.457 123.692 325.037 123.832C324.617 123.944 324.141 124.042 323.609 124.126C323.077 124.238 322.503 124.322 321.887 124.378C321.299 124.462 320.725 124.504 320.165 124.504ZM337.588 121.186C338.512 121.186 339.324 121.172 340.024 121.144C340.752 121.088 341.354 121.004 341.83 120.892V114.382C341.55 114.242 341.088 114.13 340.444 114.046C339.828 113.934 339.072 113.878 338.176 113.878C337.588 113.878 336.958 113.92 336.286 114.004C335.642 114.088 335.04 114.27 334.48 114.55C333.948 114.802 333.5 115.166 333.136 115.642C332.772 116.09 332.59 116.692 332.59 117.448C332.59 118.848 333.038 119.828 333.934 120.388C334.83 120.92 336.048 121.186 337.588 121.186ZM337.252 101.614C338.82 101.614 340.136 101.824 341.2 102.244C342.292 102.636 343.16 103.21 343.804 103.966C344.476 104.694 344.952 105.576 345.232 106.612C345.512 107.62 345.652 108.74 345.652 109.972V123.622C345.316 123.678 344.84 123.762 344.224 123.874C343.636 123.958 342.964 124.042 342.208 124.126C341.452 124.21 340.626 124.28 339.73 124.336C338.862 124.42 337.994 124.462 337.126 124.462C335.894 124.462 334.76 124.336 333.724 124.084C332.688 123.832 331.792 123.44 331.036 122.908C330.28 122.348 329.692 121.62 329.272 120.724C328.852 119.828 328.642 118.75 328.642 117.49C328.642 116.286 328.88 115.25 329.356 114.382C329.86 113.514 330.532 112.814 331.372 112.282C332.212 111.75 333.192 111.358 334.312 111.106C335.432 110.854 336.608 110.728 337.84 110.728C338.232 110.728 338.638 110.756 339.058 110.812C339.478 110.84 339.87 110.896 340.234 110.98C340.626 111.036 340.962 111.092 341.242 111.148C341.522 111.204 341.718 111.246 341.83 111.274V110.182C341.83 109.538 341.76 108.908 341.62 108.292C341.48 107.648 341.228 107.088 340.864 106.612C340.5 106.108 339.996 105.716 339.352 105.436C338.736 105.128 337.924 104.974 336.916 104.974C335.628 104.974 334.494 105.072 333.514 105.268C332.562 105.436 331.848 105.618 331.372 105.814L330.91 102.58C331.414 102.356 332.254 102.146 333.43 101.95C334.606 101.726 335.88 101.614 337.252 101.614ZM356.045 124H352.139V102.16H356.045V124ZM354.071 98.212C353.371 98.212 352.769 97.988 352.265 97.54C351.789 97.064 351.551 96.434 351.551 95.65C351.551 94.866 351.789 94.25 352.265 93.802C352.769 93.326 353.371 93.088 354.071 93.088C354.771 93.088 355.359 93.326 355.835 93.802C356.339 94.25 356.591 94.866 356.591 95.65C356.591 96.434 356.339 97.064 355.835 97.54C355.359 97.988 354.771 98.212 354.071 98.212ZM375.824 124C375.516 123.384 375.138 122.698 374.69 121.942C374.242 121.186 373.752 120.416 373.22 119.632C372.688 118.82 372.142 118.022 371.582 117.238C371.022 116.454 370.476 115.712 369.944 115.012C369.412 115.712 368.866 116.468 368.306 117.28C367.746 118.064 367.2 118.862 366.668 119.674C366.164 120.458 365.688 121.228 365.24 121.984C364.792 122.74 364.414 123.412 364.106 124H360.074C361.054 122.096 362.216 120.164 363.56 118.204C364.932 116.216 366.29 114.326 367.634 112.534L360.41 102.16H364.82L370.028 109.804L375.278 102.16H379.436L372.38 112.282C373.724 114.102 375.096 116.034 376.496 118.078C377.924 120.094 379.128 122.068 380.108 124H375.824ZM402.589 113.08C402.589 114.816 402.337 116.384 401.833 117.784C401.329 119.184 400.615 120.388 399.691 121.396C398.795 122.404 397.717 123.188 396.457 123.748C395.197 124.28 393.825 124.546 392.341 124.546C390.857 124.546 389.485 124.28 388.225 123.748C386.965 123.188 385.873 122.404 384.949 121.396C384.053 120.388 383.353 119.184 382.849 117.784C382.345 116.384 382.093 114.816 382.093 113.08C382.093 111.372 382.345 109.818 382.849 108.418C383.353 106.99 384.053 105.772 384.949 104.764C385.873 103.756 386.965 102.986 388.225 102.454C389.485 101.894 390.857 101.614 392.341 101.614C393.825 101.614 395.197 101.894 396.457 102.454C397.717 102.986 398.795 103.756 399.691 104.764C400.615 105.772 401.329 106.99 401.833 108.418C402.337 109.818 402.589 111.372 402.589 113.08ZM398.515 113.08C398.515 110.616 397.955 108.67 396.835 107.242C395.743 105.786 394.245 105.058 392.341 105.058C390.437 105.058 388.925 105.786 387.805 107.242C386.713 108.67 386.167 110.616 386.167 113.08C386.167 115.544 386.713 117.504 387.805 118.96C388.925 120.388 390.437 121.102 392.341 121.102C394.245 121.102 395.743 120.388 396.835 118.96C397.955 117.504 398.515 115.544 398.515 113.08ZM417.805 102.79C418.701 102.566 419.891 102.328 421.375 102.076C422.859 101.824 424.567 101.698 426.499 101.698C428.235 101.698 429.677 101.95 430.825 102.454C431.973 102.93 432.883 103.616 433.555 104.512C434.255 105.38 434.745 106.43 435.025 107.662C435.305 108.894 435.445 110.252 435.445 111.736V124H431.539V112.576C431.539 111.232 431.441 110.084 431.245 109.132C431.077 108.18 430.783 107.41 430.363 106.822C429.943 106.234 429.383 105.814 428.683 105.562C427.983 105.282 427.115 105.142 426.079 105.142C425.659 105.142 425.225 105.156 424.777 105.184C424.329 105.212 423.895 105.254 423.475 105.31C423.083 105.338 422.719 105.38 422.383 105.436C422.075 105.492 421.851 105.534 421.711 105.562V124H417.805V102.79ZM461.201 113.08C461.201 114.816 460.949 116.384 460.445 117.784C459.941 119.184 459.227 120.388 458.303 121.396C457.407 122.404 456.329 123.188 455.069 123.748C453.809 124.28 452.437 124.546 450.953 124.546C449.469 124.546 448.097 124.28 446.837 123.748C445.577 123.188 444.485 122.404 443.561 121.396C442.665 120.388 441.965 119.184 441.461 117.784C440.957 116.384 440.705 114.816 440.705 113.08C440.705 111.372 440.957 109.818 441.461 108.418C441.965 106.99 442.665 105.772 443.561 104.764C444.485 103.756 445.577 102.986 446.837 102.454C448.097 101.894 449.469 101.614 450.953 101.614C452.437 101.614 453.809 101.894 455.069 102.454C456.329 102.986 457.407 103.756 458.303 104.764C459.227 105.772 459.941 106.99 460.445 108.418C460.949 109.818 461.201 111.372 461.201 113.08ZM457.127 113.08C457.127 110.616 456.567 108.67 455.447 107.242C454.355 105.786 452.857 105.058 450.953 105.058C449.049 105.058 447.537 105.786 446.417 107.242C445.325 108.67 444.779 110.616 444.779 113.08C444.779 115.544 445.325 117.504 446.417 118.96C447.537 120.388 449.049 121.102 450.953 121.102C452.857 121.102 454.355 120.388 455.447 118.96C456.567 117.504 457.127 115.544 457.127 113.08ZM36.612 172V142.894H54.378V146.38H40.686V155.032H52.866V158.434H40.686V168.514H55.428V172H36.612ZM75.2894 162.634C75.2894 164.034 75.1354 165.336 74.8274 166.54C74.5474 167.744 74.0294 168.808 73.2734 169.732C72.5454 170.628 71.5514 171.342 70.2914 171.874C69.0594 172.378 67.5054 172.63 65.6294 172.63C64.6774 172.63 63.7954 172.546 62.9834 172.378C62.1994 172.238 61.4854 172.056 60.8414 171.832C60.1974 171.58 59.6374 171.328 59.1614 171.076C58.6854 170.796 58.3074 170.53 58.0274 170.278L59.6234 167.044C60.2114 167.464 60.9674 167.912 61.8914 168.388C62.8434 168.836 64.0194 169.06 65.4194 169.06C67.4354 169.06 68.9054 168.556 69.8294 167.548C70.7534 166.512 71.2154 164.748 71.2154 162.256V142.894H75.2894V162.634ZM82.3034 172V142.894H100.069V146.38H86.3774V155.032H98.5574V158.434H86.3774V168.514H101.119V172H82.3034ZM117.624 172.63C115.58 172.63 113.718 172.294 112.038 171.622C110.358 170.95 108.916 169.97 107.712 168.682C106.508 167.394 105.57 165.812 104.898 163.936C104.254 162.032 103.932 159.862 103.932 157.426C103.932 154.99 104.296 152.834 105.024 150.958C105.78 149.054 106.788 147.458 108.048 146.17C109.308 144.882 110.778 143.902 112.458 143.23C114.138 142.558 115.93 142.222 117.834 142.222C119.038 142.222 120.116 142.306 121.068 142.474C122.048 142.642 122.888 142.838 123.588 143.062C124.316 143.286 124.904 143.51 125.352 143.734C125.8 143.958 126.108 144.126 126.276 144.238L125.1 147.598C124.848 147.43 124.484 147.248 124.008 147.052C123.532 146.856 122.986 146.66 122.37 146.464C121.782 146.268 121.124 146.114 120.396 146.002C119.696 145.862 118.982 145.792 118.254 145.792C116.714 145.792 115.328 146.058 114.096 146.59C112.864 147.122 111.814 147.892 110.946 148.9C110.078 149.908 109.406 151.14 108.93 152.596C108.482 154.024 108.258 155.634 108.258 157.426C108.258 159.162 108.454 160.744 108.846 162.172C109.266 163.6 109.882 164.832 110.694 165.868C111.506 166.876 112.514 167.66 113.718 168.22C114.95 168.78 116.378 169.06 118.002 169.06C119.878 169.06 121.432 168.864 122.664 168.472C123.896 168.08 124.82 167.73 125.436 167.422L126.486 170.782C126.29 170.922 125.94 171.104 125.436 171.328C124.932 171.524 124.302 171.72 123.546 171.916C122.79 172.112 121.908 172.28 120.9 172.42C119.892 172.56 118.8 172.63 117.624 172.63ZM151.296 142.894V146.422H142.14V172H138.066V146.422H128.91V142.894H151.296ZM160.238 145.498C158.39 145.498 156.584 145.974 154.82 146.926L153.728 143.902C154.68 143.398 155.744 142.992 156.92 142.684C158.124 142.376 159.398 142.222 160.742 142.222C162.338 142.222 163.64 142.446 164.648 142.894C165.684 143.314 166.51 143.86 167.126 144.532C167.742 145.204 168.162 145.96 168.386 146.8C168.638 147.612 168.764 148.396 168.764 149.152C168.764 150.104 168.582 150.958 168.218 151.714C167.854 152.442 167.406 153.128 166.874 153.772C166.342 154.416 165.754 155.032 165.11 155.62C164.466 156.208 163.878 156.824 163.346 157.468C162.814 158.084 162.366 158.77 162.002 159.526C161.638 160.254 161.456 161.08 161.456 162.004C161.456 162.144 161.456 162.298 161.456 162.466C161.456 162.634 161.47 162.788 161.498 162.928H158.222C158.11 162.368 158.054 161.78 158.054 161.164C158.054 160.268 158.208 159.456 158.516 158.728C158.852 158 159.272 157.328 159.776 156.712C160.28 156.068 160.812 155.48 161.372 154.948C161.932 154.388 162.464 153.828 162.968 153.268C163.472 152.708 163.878 152.12 164.186 151.504C164.522 150.888 164.69 150.216 164.69 149.488C164.69 148.312 164.312 147.36 163.556 146.632C162.8 145.876 161.694 145.498 160.238 145.498ZM162.884 169.732C162.884 170.488 162.632 171.146 162.128 171.706C161.624 172.266 160.938 172.546 160.07 172.546C159.202 172.546 158.516 172.266 158.012 171.706C157.508 171.146 157.256 170.488 157.256 169.732C157.256 168.976 157.508 168.318 158.012 167.758C158.516 167.198 159.202 166.918 160.07 166.918C160.938 166.918 161.624 167.198 162.128 167.758C162.632 168.318 162.884 168.976 162.884 169.732Z" fill="#1B2338"/>
<path d="M26.7656 223L20.4688 206.547H20.3672C20.4857 207.85 20.5449 209.399 20.5449 211.193V223H18.5518V204.439H21.8018L27.6797 219.75H27.7812L33.71 204.439H36.9346V223H34.7764V211.041C34.7764 209.67 34.8356 208.18 34.9541 206.572H34.8525L28.5049 223H26.7656ZM47.5986 223.254C45.542 223.254 43.917 222.628 42.7236 221.375C41.5387 220.122 40.9463 218.383 40.9463 216.157C40.9463 213.914 41.4964 212.133 42.5967 210.812C43.7054 209.492 45.1908 208.832 47.0527 208.832C48.7962 208.832 50.1758 209.408 51.1914 210.559C52.207 211.701 52.7148 213.212 52.7148 215.091V216.424H43.1299C43.1722 218.057 43.5827 219.297 44.3613 220.144C45.1484 220.99 46.2529 221.413 47.6748 221.413C49.1729 221.413 50.654 221.1 52.1182 220.474V222.353C51.3734 222.674 50.6667 222.903 49.998 223.038C49.3379 223.182 48.5381 223.254 47.5986 223.254ZM47.0273 210.597C45.9102 210.597 45.0173 210.961 44.3486 211.688C43.6885 212.416 43.2992 213.424 43.1807 214.71H50.4551C50.4551 213.381 50.1589 212.366 49.5664 211.663C48.974 210.952 48.1276 210.597 47.0273 210.597ZM68.9521 223.254C66.8955 223.254 65.2705 222.628 64.0771 221.375C62.8923 220.122 62.2998 218.383 62.2998 216.157C62.2998 213.914 62.8499 212.133 63.9502 210.812C65.0589 209.492 66.5443 208.832 68.4062 208.832C70.1497 208.832 71.5293 209.408 72.5449 210.559C73.5605 211.701 74.0684 213.212 74.0684 215.091V216.424H64.4834C64.5257 218.057 64.9362 219.297 65.7148 220.144C66.502 220.99 67.6064 221.413 69.0283 221.413C70.5264 221.413 72.0075 221.1 73.4717 220.474V222.353C72.7269 222.674 72.0202 222.903 71.3516 223.038C70.6914 223.182 69.8916 223.254 68.9521 223.254ZM68.3809 210.597C67.2637 210.597 66.3708 210.961 65.7021 211.688C65.042 212.416 64.6527 213.424 64.5342 214.71H71.8086C71.8086 213.381 71.5124 212.366 70.9199 211.663C70.3275 210.952 69.4811 210.597 68.3809 210.597ZM87.1953 223V213.999C87.1953 212.865 86.9372 212.019 86.4209 211.46C85.9046 210.901 85.0964 210.622 83.9961 210.622C82.5404 210.622 81.474 211.016 80.7969 211.803C80.1198 212.59 79.7812 213.889 79.7812 215.7V223H77.6738V209.086H79.3877L79.7305 210.99H79.832C80.2637 210.305 80.8688 209.776 81.6475 209.403C82.4261 209.022 83.2936 208.832 84.25 208.832C85.9258 208.832 87.1868 209.238 88.0332 210.051C88.8796 210.855 89.3027 212.146 89.3027 213.923V223H87.1953ZM99.2051 223.254C97.1908 223.254 95.6292 222.636 94.5205 221.4C93.4202 220.156 92.8701 218.4 92.8701 216.132C92.8701 213.804 93.4287 212.006 94.5459 210.736C95.6715 209.467 97.2712 208.832 99.3447 208.832C100.013 208.832 100.682 208.904 101.351 209.048C102.019 209.192 102.544 209.361 102.925 209.556L102.277 211.346C101.812 211.16 101.304 211.007 100.754 210.889C100.204 210.762 99.7171 210.698 99.2939 210.698C96.4671 210.698 95.0537 212.501 95.0537 216.106C95.0537 217.816 95.3965 219.128 96.082 220.042C96.776 220.956 97.8001 221.413 99.1543 221.413C100.314 221.413 101.503 221.163 102.722 220.664V222.53C101.791 223.013 100.618 223.254 99.2051 223.254ZM114.592 223L114.173 221.02H114.071C113.377 221.891 112.683 222.484 111.989 222.797C111.304 223.102 110.445 223.254 109.412 223.254C108.033 223.254 106.949 222.898 106.162 222.188C105.383 221.477 104.994 220.465 104.994 219.153C104.994 216.343 107.241 214.871 111.735 214.735L114.097 214.659V213.796C114.097 212.704 113.86 211.9 113.386 211.384C112.92 210.859 112.171 210.597 111.139 210.597C109.979 210.597 108.667 210.952 107.203 211.663L106.556 210.051C107.241 209.678 107.99 209.386 108.803 209.175C109.624 208.963 110.445 208.857 111.266 208.857C112.924 208.857 114.152 209.226 114.947 209.962C115.751 210.698 116.153 211.879 116.153 213.504V223H114.592ZM109.831 221.515C111.143 221.515 112.171 221.155 112.916 220.436C113.669 219.716 114.046 218.709 114.046 217.414V216.157L111.938 216.246C110.263 216.305 109.052 216.568 108.308 217.033C107.571 217.49 107.203 218.205 107.203 219.179C107.203 219.94 107.432 220.52 107.889 220.918C108.354 221.316 109.002 221.515 109.831 221.515ZM122.615 223H120.508V209.086H122.615V223ZM120.33 205.315C120.33 204.833 120.449 204.482 120.686 204.262C120.923 204.033 121.219 203.919 121.574 203.919C121.913 203.919 122.205 204.033 122.45 204.262C122.696 204.49 122.818 204.841 122.818 205.315C122.818 205.789 122.696 206.145 122.45 206.382C122.205 206.61 121.913 206.725 121.574 206.725C121.219 206.725 120.923 206.61 120.686 206.382C120.449 206.145 120.33 205.789 120.33 205.315ZM130.436 215.878L125.599 209.086H127.998L131.667 214.418L135.323 209.086H137.697L132.86 215.878L137.951 223H135.564L131.667 217.363L127.731 223H125.345L130.436 215.878ZM152.729 216.03C152.729 218.299 152.157 220.072 151.015 221.35C149.872 222.619 148.294 223.254 146.279 223.254C145.035 223.254 143.931 222.962 142.966 222.378C142.001 221.794 141.256 220.956 140.731 219.864C140.207 218.772 139.944 217.494 139.944 216.03C139.944 213.762 140.511 211.997 141.646 210.736C142.78 209.467 144.354 208.832 146.368 208.832C148.315 208.832 149.859 209.479 151.002 210.774C152.153 212.069 152.729 213.821 152.729 216.03ZM142.128 216.03C142.128 217.808 142.483 219.162 143.194 220.093C143.905 221.024 144.951 221.489 146.33 221.489C147.71 221.489 148.755 221.028 149.466 220.105C150.185 219.174 150.545 217.816 150.545 216.03C150.545 214.261 150.185 212.92 149.466 212.006C148.755 211.083 147.701 210.622 146.305 210.622C144.925 210.622 143.884 211.075 143.182 211.98C142.479 212.886 142.128 214.236 142.128 216.03ZM172.711 223V213.999C172.711 212.865 172.453 212.019 171.937 211.46C171.42 210.901 170.612 210.622 169.512 210.622C168.056 210.622 166.99 211.016 166.312 211.803C165.635 212.59 165.297 213.889 165.297 215.7V223H163.189V209.086H164.903L165.246 210.99H165.348C165.779 210.305 166.384 209.776 167.163 209.403C167.942 209.022 168.809 208.832 169.766 208.832C171.441 208.832 172.702 209.238 173.549 210.051C174.395 210.855 174.818 212.146 174.818 213.923V223H172.711ZM191.17 216.03C191.17 218.299 190.599 220.072 189.456 221.35C188.313 222.619 186.735 223.254 184.721 223.254C183.477 223.254 182.372 222.962 181.407 222.378C180.442 221.794 179.698 220.956 179.173 219.864C178.648 218.772 178.386 217.494 178.386 216.03C178.386 213.762 178.953 211.997 180.087 210.736C181.221 209.467 182.795 208.832 184.81 208.832C186.756 208.832 188.301 209.479 189.443 210.774C190.594 212.069 191.17 213.821 191.17 216.03ZM180.569 216.03C180.569 217.808 180.925 219.162 181.636 220.093C182.347 221.024 183.392 221.489 184.771 221.489C186.151 221.489 187.196 221.028 187.907 220.105C188.627 219.174 188.986 217.816 188.986 216.03C188.986 214.261 188.627 212.92 187.907 212.006C187.196 211.083 186.143 210.622 184.746 210.622C183.367 210.622 182.326 211.075 181.623 211.98C180.921 212.886 180.569 214.236 180.569 216.03ZM212.295 223H201.948V204.439H212.295V206.356H204.106V212.336H211.8V214.24H204.106V221.07H212.295V223ZM213.717 227.888C212.921 227.888 212.295 227.773 211.838 227.545V225.704C212.439 225.873 213.065 225.958 213.717 225.958C214.555 225.958 215.189 225.704 215.621 225.196C216.061 224.688 216.281 223.956 216.281 223V204.439H218.439V222.822C218.439 224.43 218.033 225.674 217.221 226.555C216.408 227.443 215.24 227.888 213.717 227.888ZM233.725 223H223.378V204.439H233.725V206.356H225.536V212.336H233.229V214.24H225.536V221.07H233.725V223ZM245.798 206.103C243.758 206.103 242.146 206.784 240.961 208.146C239.785 209.501 239.196 211.358 239.196 213.72C239.196 216.149 239.763 218.028 240.897 219.356C242.04 220.677 243.665 221.337 245.772 221.337C247.067 221.337 248.544 221.104 250.203 220.639V222.53C248.917 223.013 247.33 223.254 245.442 223.254C242.709 223.254 240.597 222.424 239.107 220.766C237.626 219.107 236.886 216.75 236.886 213.694C236.886 211.782 237.241 210.106 237.952 208.667C238.672 207.228 239.704 206.119 241.05 205.341C242.404 204.562 243.995 204.173 245.823 204.173C247.77 204.173 249.471 204.528 250.927 205.239L250.013 207.093C248.608 206.433 247.203 206.103 245.798 206.103ZM259.966 223H257.808V206.356H251.93V204.439H265.844V206.356H259.966V223ZM281.561 223.254C280.655 223.254 279.826 223.089 279.072 222.759C278.327 222.42 277.701 221.904 277.193 221.21H277.041C277.143 222.022 277.193 222.793 277.193 223.521V229.246H275.086V209.086H276.8L277.092 210.99H277.193C277.735 210.229 278.366 209.678 279.085 209.34C279.804 209.001 280.63 208.832 281.561 208.832C283.406 208.832 284.827 209.463 285.826 210.724C286.833 211.985 287.337 213.754 287.337 216.03C287.337 218.315 286.825 220.093 285.801 221.362C284.785 222.623 283.372 223.254 281.561 223.254ZM281.256 210.622C279.834 210.622 278.806 211.016 278.171 211.803C277.536 212.59 277.21 213.842 277.193 215.561V216.03C277.193 217.985 277.519 219.386 278.171 220.232C278.823 221.07 279.868 221.489 281.307 221.489C282.508 221.489 283.448 221.003 284.125 220.029C284.811 219.056 285.153 217.715 285.153 216.005C285.153 214.27 284.811 212.941 284.125 212.019C283.448 211.088 282.492 210.622 281.256 210.622ZM303.041 216.03C303.041 218.299 302.47 220.072 301.327 221.35C300.185 222.619 298.606 223.254 296.592 223.254C295.348 223.254 294.243 222.962 293.278 222.378C292.313 221.794 291.569 220.956 291.044 219.864C290.519 218.772 290.257 217.494 290.257 216.03C290.257 213.762 290.824 211.997 291.958 210.736C293.092 209.467 294.666 208.832 296.681 208.832C298.627 208.832 300.172 209.479 301.314 210.774C302.465 212.069 303.041 213.821 303.041 216.03ZM292.44 216.03C292.44 217.808 292.796 219.162 293.507 220.093C294.218 221.024 295.263 221.489 296.643 221.489C298.022 221.489 299.067 221.028 299.778 220.105C300.498 219.174 300.857 217.816 300.857 216.03C300.857 214.261 300.498 212.92 299.778 212.006C299.067 211.083 298.014 210.622 296.617 210.622C295.238 210.622 294.197 211.075 293.494 211.98C292.792 212.886 292.44 214.236 292.44 216.03ZM313.096 208.832C313.714 208.832 314.268 208.883 314.759 208.984L314.467 210.939C313.891 210.812 313.383 210.749 312.943 210.749C311.818 210.749 310.853 211.206 310.049 212.12C309.253 213.034 308.855 214.173 308.855 215.535V223H306.748V209.086H308.487L308.729 211.663H308.83C309.346 210.757 309.968 210.059 310.696 209.568C311.424 209.077 312.224 208.832 313.096 208.832ZM322.617 221.489C324.022 221.489 325.046 221.113 325.689 220.359C326.333 219.606 326.675 218.337 326.718 216.551V216.081C326.718 214.134 326.388 212.734 325.728 211.879C325.067 211.024 324.022 210.597 322.592 210.597C321.356 210.597 320.408 211.079 319.748 212.044C319.096 213 318.771 214.354 318.771 216.106C318.771 217.858 319.092 219.196 319.735 220.118C320.387 221.032 321.348 221.489 322.617 221.489ZM322.3 223.254C320.506 223.254 319.105 222.623 318.098 221.362C317.09 220.101 316.587 218.341 316.587 216.081C316.587 213.804 317.095 212.027 318.11 210.749C319.126 209.471 320.539 208.832 322.351 208.832C324.255 208.832 325.719 209.551 326.743 210.99H326.857L327.162 209.086H328.825V229.246H326.718V223.292C326.718 222.446 326.764 221.726 326.857 221.134H326.692C325.719 222.547 324.255 223.254 322.3 223.254ZM335.287 209.086V218.112C335.287 219.246 335.545 220.093 336.062 220.651C336.578 221.21 337.386 221.489 338.486 221.489C339.942 221.489 341.004 221.091 341.673 220.296C342.35 219.5 342.688 218.201 342.688 216.398V209.086H344.796V223H343.057L342.752 221.134H342.638C342.206 221.819 341.605 222.344 340.835 222.708C340.073 223.072 339.201 223.254 338.22 223.254C336.527 223.254 335.257 222.852 334.411 222.048C333.573 221.244 333.154 219.957 333.154 218.188V209.086H335.287ZM355.155 223.254C353.099 223.254 351.474 222.628 350.28 221.375C349.095 220.122 348.503 218.383 348.503 216.157C348.503 213.914 349.053 212.133 350.153 210.812C351.262 209.492 352.747 208.832 354.609 208.832C356.353 208.832 357.732 209.408 358.748 210.559C359.764 211.701 360.271 213.212 360.271 215.091V216.424H350.687C350.729 218.057 351.139 219.297 351.918 220.144C352.705 220.99 353.81 221.413 355.231 221.413C356.729 221.413 358.211 221.1 359.675 220.474V222.353C358.93 222.674 358.223 222.903 357.555 223.038C356.895 223.182 356.095 223.254 355.155 223.254ZM354.584 210.597C353.467 210.597 352.574 210.961 351.905 211.688C351.245 212.416 350.856 213.424 350.737 214.71H358.012C358.012 213.381 357.715 212.366 357.123 211.663C356.531 210.952 355.684 210.597 354.584 210.597ZM379.188 223L378.769 221.02H378.667C377.973 221.891 377.279 222.484 376.585 222.797C375.899 223.102 375.04 223.254 374.008 223.254C372.628 223.254 371.545 222.898 370.758 222.188C369.979 221.477 369.59 220.465 369.59 219.153C369.59 216.343 371.837 214.871 376.331 214.735L378.692 214.659V213.796C378.692 212.704 378.455 211.9 377.981 211.384C377.516 210.859 376.767 210.597 375.734 210.597C374.575 210.597 373.263 210.952 371.799 211.663L371.151 210.051C371.837 209.678 372.586 209.386 373.398 209.175C374.219 208.963 375.04 208.857 375.861 208.857C377.52 208.857 378.747 209.226 379.543 209.962C380.347 210.698 380.749 211.879 380.749 213.504V223H379.188ZM374.427 221.515C375.739 221.515 376.767 221.155 377.512 220.436C378.265 219.716 378.642 218.709 378.642 217.414V216.157L376.534 216.246C374.858 216.305 373.648 216.568 372.903 217.033C372.167 217.49 371.799 218.205 371.799 219.179C371.799 219.94 372.027 220.52 372.484 220.918C372.95 221.316 373.597 221.515 374.427 221.515ZM390.664 223.254C388.65 223.254 387.088 222.636 385.979 221.4C384.879 220.156 384.329 218.4 384.329 216.132C384.329 213.804 384.888 212.006 386.005 210.736C387.131 209.467 388.73 208.832 390.804 208.832C391.472 208.832 392.141 208.904 392.81 209.048C393.478 209.192 394.003 209.361 394.384 209.556L393.736 211.346C393.271 211.16 392.763 211.007 392.213 210.889C391.663 210.762 391.176 210.698 390.753 210.698C387.926 210.698 386.513 212.501 386.513 216.106C386.513 217.816 386.855 219.128 387.541 220.042C388.235 220.956 389.259 221.413 390.613 221.413C391.773 221.413 392.962 221.163 394.181 220.664V222.53C393.25 223.013 392.077 223.254 390.664 223.254ZM403.842 208.832C404.46 208.832 405.014 208.883 405.505 208.984L405.213 210.939C404.637 210.812 404.13 210.749 403.689 210.749C402.564 210.749 401.599 211.206 400.795 212.12C399.999 213.034 399.602 214.173 399.602 215.535V223H397.494V209.086H399.233L399.475 211.663H399.576C400.092 210.757 400.715 210.059 401.442 209.568C402.17 209.077 402.97 208.832 403.842 208.832ZM413.985 223.254C411.929 223.254 410.304 222.628 409.11 221.375C407.925 220.122 407.333 218.383 407.333 216.157C407.333 213.914 407.883 212.133 408.983 210.812C410.092 209.492 411.577 208.832 413.439 208.832C415.183 208.832 416.562 209.408 417.578 210.559C418.594 211.701 419.102 213.212 419.102 215.091V216.424H409.517C409.559 218.057 409.969 219.297 410.748 220.144C411.535 220.99 412.64 221.413 414.062 221.413C415.56 221.413 417.041 221.1 418.505 220.474V222.353C417.76 222.674 417.053 222.903 416.385 223.038C415.725 223.182 414.925 223.254 413.985 223.254ZM413.414 210.597C412.297 210.597 411.404 210.961 410.735 211.688C410.075 212.416 409.686 213.424 409.567 214.71H416.842C416.842 213.381 416.546 212.366 415.953 211.663C415.361 210.952 414.514 210.597 413.414 210.597ZM432.178 221.134H432.063C431.09 222.547 429.634 223.254 427.696 223.254C425.877 223.254 424.459 222.632 423.443 221.388C422.436 220.144 421.933 218.375 421.933 216.081C421.933 213.787 422.44 212.006 423.456 210.736C424.472 209.467 425.885 208.832 427.696 208.832C429.584 208.832 431.031 209.518 432.038 210.889H432.203L432.114 209.886L432.063 208.908V203.246H434.171V223H432.457L432.178 221.134ZM427.963 221.489C429.402 221.489 430.443 221.1 431.086 220.321C431.738 219.534 432.063 218.269 432.063 216.525V216.081C432.063 214.109 431.733 212.704 431.073 211.866C430.422 211.02 429.376 210.597 427.938 210.597C426.702 210.597 425.754 211.079 425.094 212.044C424.442 213 424.116 214.354 424.116 216.106C424.116 217.884 424.442 219.225 425.094 220.131C425.745 221.036 426.702 221.489 427.963 221.489ZM440.76 223H438.652V209.086H440.76V223ZM438.475 205.315C438.475 204.833 438.593 204.482 438.83 204.262C439.067 204.033 439.363 203.919 439.719 203.919C440.057 203.919 440.349 204.033 440.595 204.262C440.84 204.49 440.963 204.841 440.963 205.315C440.963 205.789 440.84 206.145 440.595 206.382C440.349 206.61 440.057 206.725 439.719 206.725C439.363 206.725 439.067 206.61 438.83 206.382C438.593 206.145 438.475 205.789 438.475 205.315ZM449.723 221.515C450.095 221.515 450.455 221.489 450.802 221.438C451.149 221.379 451.424 221.32 451.627 221.261V222.873C451.398 222.983 451.06 223.072 450.611 223.14C450.171 223.216 449.773 223.254 449.418 223.254C446.727 223.254 445.381 221.836 445.381 219.001V210.724H443.388V209.708L445.381 208.832L446.27 205.861H447.488V209.086H451.525V210.724H447.488V218.912C447.488 219.75 447.687 220.393 448.085 220.842C448.483 221.29 449.029 221.515 449.723 221.515ZM466.43 216.03C466.43 218.299 465.858 220.072 464.716 221.35C463.573 222.619 461.995 223.254 459.98 223.254C458.736 223.254 457.632 222.962 456.667 222.378C455.702 221.794 454.957 220.956 454.433 219.864C453.908 218.772 453.646 217.494 453.646 216.03C453.646 213.762 454.213 211.997 455.347 210.736C456.481 209.467 458.055 208.832 460.069 208.832C462.016 208.832 463.561 209.479 464.703 210.774C465.854 212.069 466.43 213.821 466.43 216.03ZM455.829 216.03C455.829 217.808 456.185 219.162 456.896 220.093C457.606 221.024 458.652 221.489 460.031 221.489C461.411 221.489 462.456 221.028 463.167 220.105C463.886 219.174 464.246 217.816 464.246 216.03C464.246 214.261 463.886 212.92 463.167 212.006C462.456 211.083 461.402 210.622 460.006 210.622C458.626 210.622 457.585 211.075 456.883 211.98C456.18 212.886 455.829 214.236 455.829 216.03ZM23.4902 256.489C24.8952 256.489 25.9193 256.113 26.5625 255.359C27.2057 254.606 27.5485 253.337 27.5908 251.551V251.081C27.5908 249.134 27.2607 247.734 26.6006 246.879C25.9404 246.024 24.8952 245.597 23.4648 245.597C22.2292 245.597 21.2812 246.079 20.6211 247.044C19.9694 248 19.6436 249.354 19.6436 251.106C19.6436 252.858 19.9652 254.196 20.6084 255.118C21.2601 256.032 22.2207 256.489 23.4902 256.489ZM23.1729 258.254C21.3786 258.254 19.9779 257.623 18.9707 256.362C17.9635 255.101 17.46 253.341 17.46 251.081C17.46 248.804 17.9678 247.027 18.9834 245.749C19.999 244.471 21.4124 243.832 23.2236 243.832C25.1279 243.832 26.5921 244.551 27.6162 245.99H27.7305L28.0352 244.086H29.6982V264.246H27.5908V258.292C27.5908 257.446 27.6374 256.726 27.7305 256.134H27.5654C26.5921 257.547 25.1279 258.254 23.1729 258.254ZM36.1602 244.086V253.112C36.1602 254.246 36.4183 255.093 36.9346 255.651C37.4508 256.21 38.2591 256.489 39.3594 256.489C40.8151 256.489 41.8773 256.091 42.5459 255.296C43.223 254.5 43.5615 253.201 43.5615 251.398V244.086H45.6689V258H43.9297L43.625 256.134H43.5107C43.0791 256.819 42.4782 257.344 41.708 257.708C40.9463 258.072 40.0745 258.254 39.0928 258.254C37.4001 258.254 36.1305 257.852 35.2842 257.048C34.4463 256.244 34.0273 254.957 34.0273 253.188V244.086H36.1602ZM56.0283 258.254C53.9717 258.254 52.3467 257.628 51.1533 256.375C49.9684 255.122 49.376 253.383 49.376 251.157C49.376 248.914 49.9261 247.133 51.0264 245.812C52.1351 244.492 53.6204 243.832 55.4824 243.832C57.2259 243.832 58.6055 244.408 59.6211 245.559C60.6367 246.701 61.1445 248.212 61.1445 250.091V251.424H51.5596C51.6019 253.057 52.0124 254.297 52.791 255.144C53.5781 255.99 54.6826 256.413 56.1045 256.413C57.6025 256.413 59.0837 256.1 60.5479 255.474V257.353C59.8031 257.674 59.0964 257.903 58.4277 258.038C57.7676 258.182 56.9678 258.254 56.0283 258.254ZM55.457 245.597C54.3398 245.597 53.4469 245.961 52.7783 246.688C52.1182 247.416 51.7288 248.424 51.6104 249.71H58.8848C58.8848 248.381 58.5885 247.366 57.9961 246.663C57.4036 245.952 56.5573 245.597 55.457 245.597ZM80.0605 258L79.6416 256.02H79.54C78.846 256.891 78.152 257.484 77.458 257.797C76.7725 258.102 75.9134 258.254 74.8809 258.254C73.5013 258.254 72.418 257.898 71.6309 257.188C70.8522 256.477 70.4629 255.465 70.4629 254.153C70.4629 251.343 72.71 249.871 77.2041 249.735L79.5654 249.659V248.796C79.5654 247.704 79.3285 246.9 78.8545 246.384C78.389 245.859 77.64 245.597 76.6074 245.597C75.4479 245.597 74.1361 245.952 72.6719 246.663L72.0244 245.051C72.71 244.678 73.459 244.386 74.2715 244.175C75.0924 243.963 75.9134 243.857 76.7344 243.857C78.3932 243.857 79.6204 244.226 80.416 244.962C81.2201 245.698 81.6221 246.879 81.6221 248.504V258H80.0605ZM75.2998 256.515C76.6117 256.515 77.64 256.155 78.3848 255.436C79.138 254.716 79.5146 253.709 79.5146 252.414V251.157L77.4072 251.246C75.7314 251.305 74.5212 251.568 73.7764 252.033C73.04 252.49 72.6719 253.205 72.6719 254.179C72.6719 254.94 72.9004 255.52 73.3574 255.918C73.8229 256.316 74.4704 256.515 75.2998 256.515ZM92.4512 258.254C91.5456 258.254 90.7161 258.089 89.9629 257.759C89.2181 257.42 88.5918 256.904 88.084 256.21H87.9316C88.0332 257.022 88.084 257.793 88.084 258.521V264.246H85.9766V244.086H87.6904L87.9824 245.99H88.084C88.6257 245.229 89.2562 244.678 89.9756 244.34C90.695 244.001 91.5202 243.832 92.4512 243.832C94.2962 243.832 95.7181 244.463 96.7168 245.724C97.724 246.985 98.2275 248.754 98.2275 251.03C98.2275 253.315 97.7155 255.093 96.6914 256.362C95.6758 257.623 94.2624 258.254 92.4512 258.254ZM92.1465 245.622C90.7246 245.622 89.6963 246.016 89.0615 246.803C88.4268 247.59 88.1009 248.842 88.084 250.561V251.03C88.084 252.985 88.4098 254.386 89.0615 255.232C89.7132 256.07 90.7585 256.489 92.1973 256.489C93.3991 256.489 94.3385 256.003 95.0156 255.029C95.7012 254.056 96.0439 252.715 96.0439 251.005C96.0439 249.27 95.7012 247.941 95.0156 247.019C94.3385 246.088 93.3822 245.622 92.1465 245.622ZM108.27 243.832C108.887 243.832 109.442 243.883 109.933 243.984L109.641 245.939C109.065 245.812 108.557 245.749 108.117 245.749C106.992 245.749 106.027 246.206 105.223 247.12C104.427 248.034 104.029 249.173 104.029 250.535V258H101.922V244.086H103.661L103.902 246.663H104.004C104.52 245.757 105.142 245.059 105.87 244.568C106.598 244.077 107.398 243.832 108.27 243.832ZM118.413 258.254C116.356 258.254 114.731 257.628 113.538 256.375C112.353 255.122 111.761 253.383 111.761 251.157C111.761 248.914 112.311 247.133 113.411 245.812C114.52 244.492 116.005 243.832 117.867 243.832C119.611 243.832 120.99 244.408 122.006 245.559C123.021 246.701 123.529 248.212 123.529 250.091V251.424H113.944C113.987 253.057 114.397 254.297 115.176 255.144C115.963 255.99 117.067 256.413 118.489 256.413C119.987 256.413 121.468 256.1 122.933 255.474V257.353C122.188 257.674 121.481 257.903 120.812 258.038C120.152 258.182 119.353 258.254 118.413 258.254ZM117.842 245.597C116.725 245.597 115.832 245.961 115.163 246.688C114.503 247.416 114.114 248.424 113.995 249.71H121.27C121.27 248.381 120.973 247.366 120.381 246.663C119.788 245.952 118.942 245.597 117.842 245.597ZM136.656 258V248.999C136.656 247.865 136.398 247.019 135.882 246.46C135.366 245.901 134.557 245.622 133.457 245.622C132.001 245.622 130.935 246.016 130.258 246.803C129.581 247.59 129.242 248.889 129.242 250.7V258H127.135V244.086H128.849L129.191 245.99H129.293C129.725 245.305 130.33 244.776 131.108 244.403C131.887 244.022 132.755 243.832 133.711 243.832C135.387 243.832 136.648 244.238 137.494 245.051C138.34 245.855 138.764 247.146 138.764 248.923V258H136.656ZM152.576 256.134H152.462C151.489 257.547 150.033 258.254 148.095 258.254C146.275 258.254 144.857 257.632 143.842 256.388C142.835 255.144 142.331 253.375 142.331 251.081C142.331 248.787 142.839 247.006 143.854 245.736C144.87 244.467 146.284 243.832 148.095 243.832C149.982 243.832 151.429 244.518 152.437 245.889H152.602L152.513 244.886L152.462 243.908V238.246H154.569V258H152.855L152.576 256.134ZM148.361 256.489C149.8 256.489 150.841 256.1 151.484 255.321C152.136 254.534 152.462 253.269 152.462 251.525V251.081C152.462 249.109 152.132 247.704 151.472 246.866C150.82 246.02 149.775 245.597 148.336 245.597C147.1 245.597 146.152 246.079 145.492 247.044C144.84 248 144.515 249.354 144.515 251.106C144.515 252.884 144.84 254.225 145.492 255.131C146.144 256.036 147.1 256.489 148.361 256.489ZM164.929 258.254C162.872 258.254 161.247 257.628 160.054 256.375C158.869 255.122 158.276 253.383 158.276 251.157C158.276 248.914 158.826 247.133 159.927 245.812C161.035 244.492 162.521 243.832 164.383 243.832C166.126 243.832 167.506 244.408 168.521 245.559C169.537 246.701 170.045 248.212 170.045 250.091V251.424H160.46C160.502 253.057 160.913 254.297 161.691 255.144C162.479 255.99 163.583 256.413 165.005 256.413C166.503 256.413 167.984 256.1 169.448 255.474V257.353C168.703 257.674 167.997 257.903 167.328 258.038C166.668 258.182 165.868 258.254 164.929 258.254ZM164.357 245.597C163.24 245.597 162.347 245.961 161.679 246.688C161.019 247.416 160.629 248.424 160.511 249.71H167.785C167.785 248.381 167.489 247.366 166.896 246.663C166.304 245.952 165.458 245.597 164.357 245.597ZM179.998 243.832C180.616 243.832 181.17 243.883 181.661 243.984L181.369 245.939C180.794 245.812 180.286 245.749 179.846 245.749C178.72 245.749 177.755 246.206 176.951 247.12C176.156 248.034 175.758 249.173 175.758 250.535V258H173.65V244.086H175.39L175.631 246.663H175.732C176.249 245.757 176.871 245.059 177.599 244.568C178.326 244.077 179.126 243.832 179.998 243.832ZM190.142 258.254C188.085 258.254 186.46 257.628 185.267 256.375C184.082 255.122 183.489 253.383 183.489 251.157C183.489 248.914 184.039 247.133 185.14 245.812C186.248 244.492 187.734 243.832 189.596 243.832C191.339 243.832 192.719 244.408 193.734 245.559C194.75 246.701 195.258 248.212 195.258 250.091V251.424H185.673C185.715 253.057 186.126 254.297 186.904 255.144C187.691 255.99 188.796 256.413 190.218 256.413C191.716 256.413 193.197 256.1 194.661 255.474V257.353C193.916 257.674 193.21 257.903 192.541 258.038C191.881 258.182 191.081 258.254 190.142 258.254ZM189.57 245.597C188.453 245.597 187.56 245.961 186.892 246.688C186.231 247.416 185.842 248.424 185.724 249.71H192.998C192.998 248.381 192.702 247.366 192.109 246.663C191.517 245.952 190.671 245.597 189.57 245.597ZM200.971 258H198.863V244.086H200.971V258ZM198.686 240.315C198.686 239.833 198.804 239.482 199.041 239.262C199.278 239.033 199.574 238.919 199.93 238.919C200.268 238.919 200.56 239.033 200.806 239.262C201.051 239.49 201.174 239.841 201.174 240.315C201.174 240.789 201.051 241.145 200.806 241.382C200.56 241.61 200.268 241.725 199.93 241.725C199.574 241.725 199.278 241.61 199.041 241.382C198.804 241.145 198.686 240.789 198.686 240.315ZM229.929 258V248.948C229.929 247.84 229.692 247.01 229.218 246.46C228.744 245.901 228.007 245.622 227.009 245.622C225.697 245.622 224.728 245.999 224.102 246.752C223.475 247.505 223.162 248.665 223.162 250.23V258H221.055V248.948C221.055 247.84 220.818 247.01 220.344 246.46C219.87 245.901 219.129 245.622 218.122 245.622C216.802 245.622 215.833 246.02 215.215 246.815C214.605 247.603 214.301 248.897 214.301 250.7V258H212.193V244.086H213.907L214.25 245.99H214.352C214.749 245.313 215.308 244.784 216.027 244.403C216.755 244.022 217.568 243.832 218.465 243.832C220.64 243.832 222.062 244.619 222.73 246.193H222.832C223.247 245.465 223.848 244.89 224.635 244.467C225.422 244.044 226.319 243.832 227.326 243.832C228.9 243.832 230.077 244.238 230.855 245.051C231.643 245.855 232.036 247.146 232.036 248.923V258H229.929ZM238.371 244.086V253.112C238.371 254.246 238.629 255.093 239.146 255.651C239.662 256.21 240.47 256.489 241.57 256.489C243.026 256.489 244.088 256.091 244.757 255.296C245.434 254.5 245.772 253.201 245.772 251.398V244.086H247.88V258H246.141L245.836 256.134H245.722C245.29 256.819 244.689 257.344 243.919 257.708C243.157 258.072 242.285 258.254 241.304 258.254C239.611 258.254 238.341 257.852 237.495 257.048C236.657 256.244 236.238 254.957 236.238 253.188V244.086H238.371ZM254.469 258H252.361V244.086H254.469V258ZM252.184 240.315C252.184 239.833 252.302 239.482 252.539 239.262C252.776 239.033 253.072 238.919 253.428 238.919C253.766 238.919 254.058 239.033 254.304 239.262C254.549 239.49 254.672 239.841 254.672 240.315C254.672 240.789 254.549 241.145 254.304 241.382C254.058 241.61 253.766 241.725 253.428 241.725C253.072 241.725 252.776 241.61 252.539 241.382C252.302 241.145 252.184 240.789 252.184 240.315ZM263.432 256.515C263.804 256.515 264.164 256.489 264.511 256.438C264.858 256.379 265.133 256.32 265.336 256.261V257.873C265.107 257.983 264.769 258.072 264.32 258.14C263.88 258.216 263.482 258.254 263.127 258.254C260.436 258.254 259.09 256.836 259.09 254.001V245.724H257.097V244.708L259.09 243.832L259.979 240.861H261.197V244.086H265.234V245.724H261.197V253.912C261.197 254.75 261.396 255.393 261.794 255.842C262.192 256.29 262.738 256.515 263.432 256.515ZM280.139 251.03C280.139 253.299 279.567 255.072 278.425 256.35C277.282 257.619 275.704 258.254 273.689 258.254C272.445 258.254 271.341 257.962 270.376 257.378C269.411 256.794 268.666 255.956 268.142 254.864C267.617 253.772 267.354 252.494 267.354 251.03C267.354 248.762 267.922 246.997 269.056 245.736C270.19 244.467 271.764 243.832 273.778 243.832C275.725 243.832 277.27 244.479 278.412 245.774C279.563 247.069 280.139 248.821 280.139 251.03ZM269.538 251.03C269.538 252.808 269.894 254.162 270.604 255.093C271.315 256.024 272.361 256.489 273.74 256.489C275.12 256.489 276.165 256.028 276.876 255.105C277.595 254.174 277.955 252.816 277.955 251.03C277.955 249.261 277.595 247.92 276.876 247.006C276.165 246.083 275.111 245.622 273.715 245.622C272.335 245.622 271.294 246.075 270.592 246.98C269.889 247.886 269.538 249.236 269.538 251.03ZM296.16 258.254C294.146 258.254 292.584 257.636 291.476 256.4C290.375 255.156 289.825 253.4 289.825 251.132C289.825 248.804 290.384 247.006 291.501 245.736C292.627 244.467 294.226 243.832 296.3 243.832C296.968 243.832 297.637 243.904 298.306 244.048C298.974 244.192 299.499 244.361 299.88 244.556L299.232 246.346C298.767 246.16 298.259 246.007 297.709 245.889C297.159 245.762 296.672 245.698 296.249 245.698C293.422 245.698 292.009 247.501 292.009 251.106C292.009 252.816 292.352 254.128 293.037 255.042C293.731 255.956 294.755 256.413 296.109 256.413C297.269 256.413 298.458 256.163 299.677 255.664V257.53C298.746 258.013 297.574 258.254 296.16 258.254ZM315 251.03C315 253.299 314.429 255.072 313.286 256.35C312.144 257.619 310.565 258.254 308.551 258.254C307.307 258.254 306.202 257.962 305.237 257.378C304.272 256.794 303.528 255.956 303.003 254.864C302.478 253.772 302.216 252.494 302.216 251.03C302.216 248.762 302.783 246.997 303.917 245.736C305.051 244.467 306.625 243.832 308.64 243.832C310.586 243.832 312.131 244.479 313.273 245.774C314.424 247.069 315 248.821 315 251.03ZM304.399 251.03C304.399 252.808 304.755 254.162 305.466 255.093C306.177 256.024 307.222 256.489 308.602 256.489C309.981 256.489 311.026 256.028 311.737 255.105C312.457 254.174 312.816 252.816 312.816 251.03C312.816 249.261 312.457 247.92 311.737 247.006C311.026 246.083 309.973 245.622 308.576 245.622C307.197 245.622 306.156 246.075 305.453 246.98C304.751 247.886 304.399 249.236 304.399 251.03ZM336.442 258V248.948C336.442 247.84 336.205 247.01 335.731 246.46C335.257 245.901 334.521 245.622 333.522 245.622C332.211 245.622 331.242 245.999 330.615 246.752C329.989 247.505 329.676 248.665 329.676 250.23V258H327.568V248.948C327.568 247.84 327.331 247.01 326.857 246.46C326.383 245.901 325.643 245.622 324.636 245.622C323.315 245.622 322.346 246.02 321.729 246.815C321.119 247.603 320.814 248.897 320.814 250.7V258H318.707V244.086H320.421L320.764 245.99H320.865C321.263 245.313 321.822 244.784 322.541 244.403C323.269 244.022 324.081 243.832 324.979 243.832C327.154 243.832 328.576 244.619 329.244 246.193H329.346C329.76 245.465 330.361 244.89 331.148 244.467C331.936 244.044 332.833 243.832 333.84 243.832C335.414 243.832 336.59 244.238 337.369 245.051C338.156 245.855 338.55 247.146 338.55 248.923V258H336.442ZM352.705 258L347.424 244.086H349.684L352.68 252.338C353.357 254.268 353.755 255.52 353.873 256.096H353.975C354.068 255.647 354.36 254.72 354.851 253.315C355.35 251.902 356.463 248.826 358.189 244.086H360.449L355.168 258H352.705ZM374.693 251.03C374.693 253.299 374.122 255.072 372.979 256.35C371.837 257.619 370.258 258.254 368.244 258.254C367 258.254 365.896 257.962 364.931 257.378C363.966 256.794 363.221 255.956 362.696 254.864C362.172 253.772 361.909 252.494 361.909 251.03C361.909 248.762 362.476 246.997 363.61 245.736C364.744 244.467 366.319 243.832 368.333 243.832C370.28 243.832 371.824 244.479 372.967 245.774C374.118 247.069 374.693 248.821 374.693 251.03ZM364.093 251.03C364.093 252.808 364.448 254.162 365.159 255.093C365.87 256.024 366.915 256.489 368.295 256.489C369.674 256.489 370.72 256.028 371.431 255.105C372.15 254.174 372.51 252.816 372.51 251.03C372.51 249.261 372.15 247.92 371.431 247.006C370.72 246.083 369.666 245.622 368.27 245.622C366.89 245.622 365.849 246.075 365.146 246.98C364.444 247.886 364.093 249.236 364.093 251.03ZM383.961 258.254C381.947 258.254 380.385 257.636 379.276 256.4C378.176 255.156 377.626 253.4 377.626 251.132C377.626 248.804 378.185 247.006 379.302 245.736C380.427 244.467 382.027 243.832 384.101 243.832C384.769 243.832 385.438 243.904 386.106 244.048C386.775 244.192 387.3 244.361 387.681 244.556L387.033 246.346C386.568 246.16 386.06 246.007 385.51 245.889C384.96 245.762 384.473 245.698 384.05 245.698C381.223 245.698 379.81 247.501 379.81 251.106C379.81 252.816 380.152 254.128 380.838 255.042C381.532 255.956 382.556 256.413 383.91 256.413C385.07 256.413 386.259 256.163 387.478 255.664V257.53C386.547 258.013 385.374 258.254 383.961 258.254ZM396.669 258.254C394.612 258.254 392.987 257.628 391.794 256.375C390.609 255.122 390.017 253.383 390.017 251.157C390.017 248.914 390.567 247.133 391.667 245.812C392.776 244.492 394.261 243.832 396.123 243.832C397.867 243.832 399.246 244.408 400.262 245.559C401.277 246.701 401.785 248.212 401.785 250.091V251.424H392.2C392.243 253.057 392.653 254.297 393.432 255.144C394.219 255.99 395.323 256.413 396.745 256.413C398.243 256.413 399.724 256.1 401.188 255.474V257.353C400.444 257.674 399.737 257.903 399.068 258.038C398.408 258.182 397.608 258.254 396.669 258.254ZM396.098 245.597C394.98 245.597 394.088 245.961 393.419 246.688C392.759 247.416 392.369 248.424 392.251 249.71H399.525C399.525 248.381 399.229 247.366 398.637 246.663C398.044 245.952 397.198 245.597 396.098 245.597ZM391.845 241.953C392.92 240.802 393.673 239.956 394.104 239.414C394.536 238.872 394.849 238.428 395.044 238.081H397.151C397.338 238.437 397.659 238.898 398.116 239.465C398.582 240.023 399.343 240.853 400.401 241.953V242.245H398.891C398.146 241.78 397.211 240.993 396.085 239.884C394.934 241.018 394.007 241.805 393.305 242.245H391.845V241.953ZM414.366 254.204C414.366 255.499 413.884 256.498 412.919 257.2C411.954 257.903 410.6 258.254 408.856 258.254C407.011 258.254 405.573 257.962 404.54 257.378V255.423C405.209 255.761 405.924 256.028 406.686 256.223C407.456 256.417 408.196 256.515 408.907 256.515C410.007 256.515 410.854 256.341 411.446 255.994C412.039 255.639 412.335 255.101 412.335 254.382C412.335 253.84 412.098 253.379 411.624 252.998C411.159 252.609 410.244 252.152 408.882 251.627C407.587 251.145 406.664 250.726 406.114 250.37C405.573 250.006 405.166 249.596 404.896 249.139C404.633 248.682 404.502 248.136 404.502 247.501C404.502 246.367 404.963 245.474 405.886 244.822C406.808 244.162 408.074 243.832 409.682 243.832C411.18 243.832 412.644 244.137 414.074 244.746L413.325 246.46C411.929 245.884 410.663 245.597 409.529 245.597C408.531 245.597 407.777 245.753 407.27 246.066C406.762 246.38 406.508 246.811 406.508 247.361C406.508 247.734 406.601 248.051 406.787 248.313C406.982 248.576 407.291 248.826 407.714 249.062C408.137 249.299 408.95 249.642 410.151 250.091C411.802 250.692 412.915 251.297 413.49 251.906C414.074 252.516 414.366 253.282 414.366 254.204ZM430.438 258.254C428.382 258.254 426.757 257.628 425.563 256.375C424.379 255.122 423.786 253.383 423.786 251.157C423.786 248.914 424.336 247.133 425.437 245.812C426.545 244.492 428.031 243.832 429.893 243.832C431.636 243.832 433.016 244.408 434.031 245.559C435.047 246.701 435.555 248.212 435.555 250.091V251.424H425.97C426.012 253.057 426.423 254.297 427.201 255.144C427.988 255.99 429.093 256.413 430.515 256.413C432.013 256.413 433.494 256.1 434.958 255.474V257.353C434.213 257.674 433.507 257.903 432.838 258.038C432.178 258.182 431.378 258.254 430.438 258.254ZM429.867 245.597C428.75 245.597 427.857 245.961 427.188 246.688C426.528 247.416 426.139 248.424 426.021 249.71H433.295C433.295 248.381 432.999 247.366 432.406 246.663C431.814 245.952 430.967 245.597 429.867 245.597ZM26.791 293L26.3721 291.02H26.2705C25.5765 291.891 24.8825 292.484 24.1885 292.797C23.5029 293.102 22.6439 293.254 21.6113 293.254C20.2318 293.254 19.1484 292.898 18.3613 292.188C17.5827 291.477 17.1934 290.465 17.1934 289.153C17.1934 286.343 19.4404 284.871 23.9346 284.735L26.2959 284.659V283.796C26.2959 282.704 26.0589 281.9 25.585 281.384C25.1195 280.859 24.3704 280.597 23.3379 280.597C22.1784 280.597 20.8665 280.952 19.4023 281.663L18.7549 280.051C19.4404 279.678 20.1895 279.386 21.002 279.175C21.8229 278.963 22.6439 278.857 23.4648 278.857C25.1237 278.857 26.3509 279.226 27.1465 279.962C27.9505 280.698 28.3525 281.879 28.3525 283.504V293H26.791ZM22.0303 291.515C23.3421 291.515 24.3704 291.155 25.1152 290.436C25.8685 289.716 26.2451 288.709 26.2451 287.414V286.157L24.1377 286.246C22.4619 286.305 21.2516 286.568 20.5068 287.033C19.7705 287.49 19.4023 288.205 19.4023 289.179C19.4023 289.94 19.6309 290.52 20.0879 290.918C20.5534 291.316 21.2008 291.515 22.0303 291.515ZM38.2676 293.254C36.2533 293.254 34.6917 292.636 33.583 291.4C32.4827 290.156 31.9326 288.4 31.9326 286.132C31.9326 283.804 32.4912 282.006 33.6084 280.736C34.734 279.467 36.3337 278.832 38.4072 278.832C39.0758 278.832 39.7445 278.904 40.4131 279.048C41.0817 279.192 41.6064 279.361 41.9873 279.556L41.3398 281.346C40.8743 281.16 40.3665 281.007 39.8164 280.889C39.2663 280.762 38.7796 280.698 38.3564 280.698C35.5296 280.698 34.1162 282.501 34.1162 286.106C34.1162 287.816 34.459 289.128 35.1445 290.042C35.8385 290.956 36.8626 291.413 38.2168 291.413C39.3763 291.413 40.5654 291.163 41.7842 290.664V292.53C40.8532 293.013 39.681 293.254 38.2676 293.254ZM47.2051 293H45.0977V279.086H47.2051V293ZM44.9199 275.315C44.9199 274.833 45.0384 274.482 45.2754 274.262C45.5124 274.033 45.8086 273.919 46.1641 273.919C46.5026 273.919 46.7946 274.033 47.04 274.262C47.2855 274.49 47.4082 274.841 47.4082 275.315C47.4082 275.789 47.2855 276.145 47.04 276.382C46.7946 276.61 46.5026 276.725 46.1641 276.725C45.8086 276.725 45.5124 276.61 45.2754 276.382C45.0384 276.145 44.9199 275.789 44.9199 275.315ZM69.4092 293V283.948C69.4092 282.84 69.1722 282.01 68.6982 281.46C68.2243 280.901 67.488 280.622 66.4893 280.622C65.1774 280.622 64.2083 280.999 63.582 281.752C62.9557 282.505 62.6426 283.665 62.6426 285.23V293H60.5352V283.948C60.5352 282.84 60.2982 282.01 59.8242 281.46C59.3503 280.901 58.6097 280.622 57.6025 280.622C56.2822 280.622 55.3132 281.02 54.6953 281.815C54.0859 282.603 53.7812 283.897 53.7812 285.7V293H51.6738V279.086H53.3877L53.7305 280.99H53.832C54.2298 280.313 54.7884 279.784 55.5078 279.403C56.2357 279.022 57.0482 278.832 57.9453 278.832C60.1204 278.832 61.5423 279.619 62.2109 281.193H62.3125C62.7272 280.465 63.3281 279.89 64.1152 279.467C64.9023 279.044 65.7995 278.832 66.8066 278.832C68.3809 278.832 69.5573 279.238 70.3359 280.051C71.123 280.855 71.5166 282.146 71.5166 283.923V293H69.4092ZM84.4277 293L84.0088 291.02H83.9072C83.2132 291.891 82.5192 292.484 81.8252 292.797C81.1396 293.102 80.2806 293.254 79.248 293.254C77.8685 293.254 76.7852 292.898 75.998 292.188C75.2194 291.477 74.8301 290.465 74.8301 289.153C74.8301 286.343 77.0771 284.871 81.5713 284.735L83.9326 284.659V283.796C83.9326 282.704 83.6956 281.9 83.2217 281.384C82.7562 280.859 82.0072 280.597 80.9746 280.597C79.8151 280.597 78.5033 280.952 77.0391 281.663L76.3916 280.051C77.0771 279.678 77.8262 279.386 78.6387 279.175C79.4596 278.963 80.2806 278.857 81.1016 278.857C82.7604 278.857 83.9876 279.226 84.7832 279.962C85.5872 280.698 85.9893 281.879 85.9893 283.504V293H84.4277ZM79.667 291.515C80.9788 291.515 82.0072 291.155 82.752 290.436C83.5052 289.716 83.8818 288.709 83.8818 287.414V286.157L81.7744 286.246C80.0986 286.305 78.8883 286.568 78.1436 287.033C77.4072 287.49 77.0391 288.205 77.0391 289.179C77.0391 289.94 77.2676 290.52 77.7246 290.918C78.1901 291.316 78.8376 291.515 79.667 291.515ZM106.568 291.134H106.454C105.481 292.547 104.025 293.254 102.087 293.254C100.267 293.254 98.8496 292.632 97.834 291.388C96.8268 290.144 96.3232 288.375 96.3232 286.081C96.3232 283.787 96.8311 282.006 97.8467 280.736C98.8623 279.467 100.276 278.832 102.087 278.832C103.974 278.832 105.422 279.518 106.429 280.889H106.594L106.505 279.886L106.454 278.908V273.246H108.562V293H106.848L106.568 291.134ZM102.354 291.489C103.792 291.489 104.833 291.1 105.477 290.321C106.128 289.534 106.454 288.269 106.454 286.525V286.081C106.454 284.109 106.124 282.704 105.464 281.866C104.812 281.02 103.767 280.597 102.328 280.597C101.092 280.597 100.145 281.079 99.4844 282.044C98.8327 283 98.5068 284.354 98.5068 286.106C98.5068 287.884 98.8327 289.225 99.4844 290.131C100.136 291.036 101.092 291.489 102.354 291.489ZM118.921 293.254C116.864 293.254 115.239 292.628 114.046 291.375C112.861 290.122 112.269 288.383 112.269 286.157C112.269 283.914 112.819 282.133 113.919 280.812C115.028 279.492 116.513 278.832 118.375 278.832C120.118 278.832 121.498 279.408 122.514 280.559C123.529 281.701 124.037 283.212 124.037 285.091V286.424H114.452C114.494 288.057 114.905 289.297 115.684 290.144C116.471 290.99 117.575 291.413 118.997 291.413C120.495 291.413 121.976 291.1 123.44 290.474V292.353C122.696 292.674 121.989 292.903 121.32 293.038C120.66 293.182 119.86 293.254 118.921 293.254ZM118.35 280.597C117.232 280.597 116.34 280.961 115.671 281.688C115.011 282.416 114.621 283.424 114.503 284.71H121.777C121.777 283.381 121.481 282.366 120.889 281.663C120.296 280.952 119.45 280.597 118.35 280.597ZM138.891 291.515C139.263 291.515 139.623 291.489 139.97 291.438C140.317 291.379 140.592 291.32 140.795 291.261V292.873C140.566 292.983 140.228 293.072 139.779 293.14C139.339 293.216 138.941 293.254 138.586 293.254C135.895 293.254 134.549 291.836 134.549 289.001V280.724H132.556V279.708L134.549 278.832L135.438 275.861H136.656V279.086H140.693V280.724H136.656V288.912C136.656 289.75 136.855 290.393 137.253 290.842C137.651 291.29 138.197 291.515 138.891 291.515ZM145.568 279.086V288.112C145.568 289.246 145.826 290.093 146.343 290.651C146.859 291.21 147.667 291.489 148.768 291.489C150.223 291.489 151.285 291.091 151.954 290.296C152.631 289.5 152.97 288.201 152.97 286.398V279.086H155.077V293H153.338L153.033 291.134H152.919C152.487 291.819 151.886 292.344 151.116 292.708C150.354 293.072 149.483 293.254 148.501 293.254C146.808 293.254 145.539 292.852 144.692 292.048C143.854 291.244 143.436 289.957 143.436 288.188V279.086H145.568ZM169.029 291.134H168.915C167.942 292.547 166.486 293.254 164.548 293.254C162.728 293.254 161.311 292.632 160.295 291.388C159.288 290.144 158.784 288.375 158.784 286.081C158.784 283.787 159.292 282.006 160.308 280.736C161.323 279.467 162.737 278.832 164.548 278.832C166.435 278.832 167.882 279.518 168.89 280.889H169.055L168.966 279.886L168.915 278.908V273.246H171.022V293H169.309L169.029 291.134ZM164.814 291.489C166.253 291.489 167.294 291.1 167.938 290.321C168.589 289.534 168.915 288.269 168.915 286.525V286.081C168.915 284.109 168.585 282.704 167.925 281.866C167.273 281.02 166.228 280.597 164.789 280.597C163.553 280.597 162.605 281.079 161.945 282.044C161.294 283 160.968 284.354 160.968 286.106C160.968 287.884 161.294 289.225 161.945 290.131C162.597 291.036 163.553 291.489 164.814 291.489ZM187.514 286.03C187.514 288.299 186.942 290.072 185.8 291.35C184.657 292.619 183.079 293.254 181.064 293.254C179.82 293.254 178.716 292.962 177.751 292.378C176.786 291.794 176.041 290.956 175.517 289.864C174.992 288.772 174.729 287.494 174.729 286.03C174.729 283.762 175.297 281.997 176.431 280.736C177.565 279.467 179.139 278.832 181.153 278.832C183.1 278.832 184.645 279.479 185.787 280.774C186.938 282.069 187.514 283.821 187.514 286.03ZM176.913 286.03C176.913 287.808 177.269 289.162 177.979 290.093C178.69 291.024 179.736 291.489 181.115 291.489C182.495 291.489 183.54 291.028 184.251 290.105C184.97 289.174 185.33 287.816 185.33 286.03C185.33 284.261 184.97 282.92 184.251 282.006C183.54 281.083 182.486 280.622 181.09 280.622C179.71 280.622 178.669 281.075 177.967 281.98C177.264 282.886 176.913 284.236 176.913 286.03ZM193.43 289.979L193.62 290.271C193.4 291.117 193.083 292.099 192.668 293.216C192.253 294.341 191.822 295.387 191.373 296.352H189.786C190.015 295.471 190.264 294.384 190.535 293.089C190.814 291.794 191.009 290.757 191.119 289.979H193.43ZM210.619 280.724H207.077V293H204.97V280.724H202.481V279.771L204.97 279.01V278.235C204.97 274.816 206.464 273.106 209.451 273.106C210.188 273.106 211.051 273.255 212.041 273.551L211.495 275.239C210.683 274.977 209.989 274.846 209.413 274.846C208.618 274.846 208.029 275.112 207.648 275.646C207.268 276.17 207.077 277.017 207.077 278.185V279.086H210.619V280.724ZM221.715 293L221.296 291.02H221.194C220.5 291.891 219.806 292.484 219.112 292.797C218.427 293.102 217.568 293.254 216.535 293.254C215.156 293.254 214.072 292.898 213.285 292.188C212.507 291.477 212.117 290.465 212.117 289.153C212.117 286.343 214.364 284.871 218.858 284.735L221.22 284.659V283.796C221.22 282.704 220.983 281.9 220.509 281.384C220.043 280.859 219.294 280.597 218.262 280.597C217.102 280.597 215.79 280.952 214.326 281.663L213.679 280.051C214.364 279.678 215.113 279.386 215.926 279.175C216.747 278.963 217.568 278.857 218.389 278.857C220.048 278.857 221.275 279.226 222.07 279.962C222.874 280.698 223.276 281.879 223.276 283.504V293H221.715ZM216.954 291.515C218.266 291.515 219.294 291.155 220.039 290.436C220.792 289.716 221.169 288.709 221.169 287.414V286.157L219.062 286.246C217.386 286.305 216.175 286.568 215.431 287.033C214.694 287.49 214.326 288.205 214.326 289.179C214.326 289.94 214.555 290.52 215.012 290.918C215.477 291.316 216.125 291.515 216.954 291.515ZM233.979 278.832C234.596 278.832 235.151 278.883 235.642 278.984L235.35 280.939C234.774 280.812 234.266 280.749 233.826 280.749C232.701 280.749 231.736 281.206 230.932 282.12C230.136 283.034 229.738 284.173 229.738 285.535V293H227.631V279.086H229.37L229.611 281.663H229.713C230.229 280.757 230.851 280.059 231.579 279.568C232.307 279.077 233.107 278.832 233.979 278.832ZM244.122 293.254C242.065 293.254 240.44 292.628 239.247 291.375C238.062 290.122 237.47 288.383 237.47 286.157C237.47 283.914 238.02 282.133 239.12 280.812C240.229 279.492 241.714 278.832 243.576 278.832C245.32 278.832 246.699 279.408 247.715 280.559C248.73 281.701 249.238 283.212 249.238 285.091V286.424H239.653C239.696 288.057 240.106 289.297 240.885 290.144C241.672 290.99 242.776 291.413 244.198 291.413C245.696 291.413 247.177 291.1 248.642 290.474V292.353C247.897 292.674 247.19 292.903 246.521 293.038C245.861 293.182 245.062 293.254 244.122 293.254ZM243.551 280.597C242.434 280.597 241.541 280.961 240.872 281.688C240.212 282.416 239.823 283.424 239.704 284.71H246.979C246.979 283.381 246.682 282.366 246.09 281.663C245.497 280.952 244.651 280.597 243.551 280.597ZM254.951 293H252.844V279.086H254.951V293ZM252.666 275.315C252.666 274.833 252.785 274.482 253.021 274.262C253.258 274.033 253.555 273.919 253.91 273.919C254.249 273.919 254.541 274.033 254.786 274.262C255.032 274.49 255.154 274.841 255.154 275.315C255.154 275.789 255.032 276.145 254.786 276.382C254.541 276.61 254.249 276.725 253.91 276.725C253.555 276.725 253.258 276.61 253.021 276.382C252.785 276.145 252.666 275.789 252.666 275.315ZM277.562 279.086V280.419L274.984 280.724C275.221 281.02 275.433 281.409 275.619 281.892C275.805 282.366 275.898 282.903 275.898 283.504C275.898 284.867 275.433 285.954 274.502 286.767C273.571 287.579 272.293 287.985 270.668 287.985C270.253 287.985 269.864 287.951 269.5 287.884C268.603 288.358 268.154 288.954 268.154 289.674C268.154 290.055 268.311 290.338 268.624 290.524C268.937 290.702 269.475 290.791 270.236 290.791H272.699C274.206 290.791 275.361 291.108 276.165 291.743C276.978 292.378 277.384 293.3 277.384 294.511C277.384 296.051 276.766 297.223 275.53 298.027C274.295 298.84 272.492 299.246 270.122 299.246C268.302 299.246 266.897 298.908 265.907 298.23C264.925 297.553 264.435 296.597 264.435 295.361C264.435 294.515 264.705 293.783 265.247 293.165C265.789 292.547 266.55 292.128 267.532 291.908C267.177 291.747 266.876 291.498 266.631 291.159C266.394 290.821 266.275 290.427 266.275 289.979C266.275 289.471 266.411 289.026 266.682 288.646C266.952 288.265 267.38 287.896 267.964 287.541C267.244 287.245 266.656 286.741 266.199 286.03C265.751 285.319 265.526 284.507 265.526 283.593C265.526 282.069 265.983 280.897 266.897 280.076C267.812 279.247 269.106 278.832 270.782 278.832C271.51 278.832 272.166 278.917 272.75 279.086H277.562ZM266.466 295.336C266.466 296.089 266.783 296.66 267.418 297.05C268.053 297.439 268.963 297.634 270.147 297.634C271.916 297.634 273.224 297.367 274.07 296.834C274.925 296.309 275.353 295.594 275.353 294.688C275.353 293.935 275.12 293.41 274.654 293.114C274.189 292.826 273.313 292.683 272.026 292.683H269.5C268.544 292.683 267.799 292.911 267.266 293.368C266.732 293.825 266.466 294.481 266.466 295.336ZM267.608 283.542C267.608 284.515 267.883 285.252 268.434 285.751C268.984 286.25 269.75 286.5 270.731 286.5C272.788 286.5 273.816 285.501 273.816 283.504C273.816 281.413 272.775 280.368 270.693 280.368C269.703 280.368 268.941 280.635 268.408 281.168C267.875 281.701 267.608 282.493 267.608 283.542ZM286.766 278.832C287.383 278.832 287.938 278.883 288.429 278.984L288.137 280.939C287.561 280.812 287.053 280.749 286.613 280.749C285.488 280.749 284.523 281.206 283.719 282.12C282.923 283.034 282.525 284.173 282.525 285.535V293H280.418V279.086H282.157L282.398 281.663H282.5C283.016 280.757 283.638 280.059 284.366 279.568C285.094 279.077 285.894 278.832 286.766 278.832ZM299.588 293L299.169 291.02H299.067C298.373 291.891 297.679 292.484 296.985 292.797C296.3 293.102 295.441 293.254 294.408 293.254C293.029 293.254 291.945 292.898 291.158 292.188C290.38 291.477 289.99 290.465 289.99 289.153C289.99 286.343 292.237 284.871 296.731 284.735L299.093 284.659V283.796C299.093 282.704 298.856 281.9 298.382 281.384C297.916 280.859 297.167 280.597 296.135 280.597C294.975 280.597 293.663 280.952 292.199 281.663L291.552 280.051C292.237 279.678 292.986 279.386 293.799 279.175C294.62 278.963 295.441 278.857 296.262 278.857C297.921 278.857 299.148 279.226 299.943 279.962C300.747 280.698 301.149 281.879 301.149 283.504V293H299.588ZM294.827 291.515C296.139 291.515 297.167 291.155 297.912 290.436C298.665 289.716 299.042 288.709 299.042 287.414V286.157L296.935 286.246C295.259 286.305 294.049 286.568 293.304 287.033C292.567 287.49 292.199 288.205 292.199 289.179C292.199 289.94 292.428 290.52 292.885 290.918C293.35 291.316 293.998 291.515 294.827 291.515ZM315.025 293V283.999C315.025 282.865 314.767 282.019 314.251 281.46C313.735 280.901 312.926 280.622 311.826 280.622C310.37 280.622 309.304 281.016 308.627 281.803C307.95 282.59 307.611 283.889 307.611 285.7V293H305.504V279.086H307.218L307.561 280.99H307.662C308.094 280.305 308.699 279.776 309.478 279.403C310.256 279.022 311.124 278.832 312.08 278.832C313.756 278.832 315.017 279.238 315.863 280.051C316.71 280.855 317.133 282.146 317.133 283.923V293H315.025ZM330.945 291.134H330.831C329.858 292.547 328.402 293.254 326.464 293.254C324.644 293.254 323.227 292.632 322.211 291.388C321.204 290.144 320.7 288.375 320.7 286.081C320.7 283.787 321.208 282.006 322.224 280.736C323.239 279.467 324.653 278.832 326.464 278.832C328.351 278.832 329.799 279.518 330.806 280.889H330.971L330.882 279.886L330.831 278.908V273.246H332.938V293H331.225L330.945 291.134ZM326.73 291.489C328.169 291.489 329.21 291.1 329.854 290.321C330.505 289.534 330.831 288.269 330.831 286.525V286.081C330.831 284.109 330.501 282.704 329.841 281.866C329.189 281.02 328.144 280.597 326.705 280.597C325.469 280.597 324.521 281.079 323.861 282.044C323.21 283 322.884 284.354 322.884 286.106C322.884 287.884 323.21 289.225 323.861 290.131C324.513 291.036 325.469 291.489 326.73 291.489ZM343.298 293.254C341.241 293.254 339.616 292.628 338.423 291.375C337.238 290.122 336.646 288.383 336.646 286.157C336.646 283.914 337.196 282.133 338.296 280.812C339.405 279.492 340.89 278.832 342.752 278.832C344.495 278.832 345.875 279.408 346.891 280.559C347.906 281.701 348.414 283.212 348.414 285.091V286.424H338.829C338.871 288.057 339.282 289.297 340.061 290.144C340.848 290.99 341.952 291.413 343.374 291.413C344.872 291.413 346.353 291.1 347.817 290.474V292.353C347.073 292.674 346.366 292.903 345.697 293.038C345.037 293.182 344.237 293.254 343.298 293.254ZM342.727 280.597C341.609 280.597 340.716 280.961 340.048 281.688C339.388 282.416 338.998 283.424 338.88 284.71H346.154C346.154 283.381 345.858 282.366 345.266 281.663C344.673 280.952 343.827 280.597 342.727 280.597ZM360.995 289.204C360.995 290.499 360.513 291.498 359.548 292.2C358.583 292.903 357.229 293.254 355.485 293.254C353.64 293.254 352.201 292.962 351.169 292.378V290.423C351.838 290.761 352.553 291.028 353.314 291.223C354.085 291.417 354.825 291.515 355.536 291.515C356.636 291.515 357.483 291.341 358.075 290.994C358.668 290.639 358.964 290.101 358.964 289.382C358.964 288.84 358.727 288.379 358.253 287.998C357.787 287.609 356.873 287.152 355.511 286.627C354.216 286.145 353.293 285.726 352.743 285.37C352.201 285.006 351.795 284.596 351.524 284.139C351.262 283.682 351.131 283.136 351.131 282.501C351.131 281.367 351.592 280.474 352.515 279.822C353.437 279.162 354.702 278.832 356.311 278.832C357.809 278.832 359.273 279.137 360.703 279.746L359.954 281.46C358.558 280.884 357.292 280.597 356.158 280.597C355.16 280.597 354.406 280.753 353.898 281.066C353.391 281.38 353.137 281.811 353.137 282.361C353.137 282.734 353.23 283.051 353.416 283.313C353.611 283.576 353.92 283.826 354.343 284.062C354.766 284.299 355.578 284.642 356.78 285.091C358.431 285.692 359.544 286.297 360.119 286.906C360.703 287.516 360.995 288.282 360.995 289.204ZM26.791 328L26.3721 326.02H26.2705C25.5765 326.891 24.8825 327.484 24.1885 327.797C23.5029 328.102 22.6439 328.254 21.6113 328.254C20.2318 328.254 19.1484 327.898 18.3613 327.188C17.5827 326.477 17.1934 325.465 17.1934 324.153C17.1934 321.343 19.4404 319.871 23.9346 319.735L26.2959 319.659V318.796C26.2959 317.704 26.0589 316.9 25.585 316.384C25.1195 315.859 24.3704 315.597 23.3379 315.597C22.1784 315.597 20.8665 315.952 19.4023 316.663L18.7549 315.051C19.4404 314.678 20.1895 314.386 21.002 314.175C21.8229 313.963 22.6439 313.857 23.4648 313.857C25.1237 313.857 26.3509 314.226 27.1465 314.962C27.9505 315.698 28.3525 316.879 28.3525 318.504V328H26.791ZM22.0303 326.515C23.3421 326.515 24.3704 326.155 25.1152 325.436C25.8685 324.716 26.2451 323.709 26.2451 322.414V321.157L24.1377 321.246C22.4619 321.305 21.2516 321.568 20.5068 322.033C19.7705 322.49 19.4023 323.205 19.4023 324.179C19.4023 324.94 19.6309 325.52 20.0879 325.918C20.5534 326.316 21.2008 326.515 22.0303 326.515ZM50.4424 328V318.948C50.4424 317.84 50.2054 317.01 49.7314 316.46C49.2575 315.901 48.5212 315.622 47.5225 315.622C46.2106 315.622 45.2415 315.999 44.6152 316.752C43.9889 317.505 43.6758 318.665 43.6758 320.23V328H41.5684V318.948C41.5684 317.84 41.3314 317.01 40.8574 316.46C40.3835 315.901 39.6429 315.622 38.6357 315.622C37.3154 315.622 36.3464 316.02 35.7285 316.815C35.1191 317.603 34.8145 318.897 34.8145 320.7V328H32.707V314.086H34.4209L34.7637 315.99H34.8652C35.263 315.313 35.8216 314.784 36.541 314.403C37.2689 314.022 38.0814 313.832 38.9785 313.832C41.1536 313.832 42.5755 314.619 43.2441 316.193H43.3457C43.7604 315.465 44.3613 314.89 45.1484 314.467C45.9355 314.044 46.8327 313.832 47.8398 313.832C49.4141 313.832 50.5905 314.238 51.3691 315.051C52.1562 315.855 52.5498 317.146 52.5498 318.923V328H50.4424ZM59.0117 328H56.9043V314.086H59.0117V328ZM56.7266 310.315C56.7266 309.833 56.8451 309.482 57.082 309.262C57.319 309.033 57.6152 308.919 57.9707 308.919C58.3092 308.919 58.6012 309.033 58.8467 309.262C59.0921 309.49 59.2148 309.841 59.2148 310.315C59.2148 310.789 59.0921 311.145 58.8467 311.382C58.6012 311.61 58.3092 311.725 57.9707 311.725C57.6152 311.725 57.319 311.61 57.082 311.382C56.8451 311.145 56.7266 310.789 56.7266 310.315ZM72.3799 328H62.2871V326.565L69.8789 315.724H62.7568V314.086H72.1895V315.724L64.6992 326.362H72.3799V328ZM84.1992 328L83.7803 326.02H83.6787C82.9847 326.891 82.2907 327.484 81.5967 327.797C80.9111 328.102 80.0521 328.254 79.0195 328.254C77.64 328.254 76.5566 327.898 75.7695 327.188C74.9909 326.477 74.6016 325.465 74.6016 324.153C74.6016 321.343 76.8486 319.871 81.3428 319.735L83.7041 319.659V318.796C83.7041 317.704 83.4671 316.9 82.9932 316.384C82.5277 315.859 81.7786 315.597 80.7461 315.597C79.5866 315.597 78.2747 315.952 76.8105 316.663L76.1631 315.051C76.8486 314.678 77.5977 314.386 78.4102 314.175C79.2311 313.963 80.0521 313.857 80.873 313.857C82.5319 313.857 83.7591 314.226 84.5547 314.962C85.3587 315.698 85.7607 316.879 85.7607 318.504V328H84.1992ZM79.4385 326.515C80.7503 326.515 81.7786 326.155 82.5234 325.436C83.2767 324.716 83.6533 323.709 83.6533 322.414V321.157L81.5459 321.246C79.8701 321.305 78.6598 321.568 77.915 322.033C77.1787 322.49 76.8105 323.205 76.8105 324.179C76.8105 324.94 77.0391 325.52 77.4961 325.918C77.9616 326.316 78.609 326.515 79.4385 326.515ZM99.5859 326.134H99.4717C98.4984 327.547 97.0426 328.254 95.1045 328.254C93.2848 328.254 91.8672 327.632 90.8516 326.388C89.8444 325.144 89.3408 323.375 89.3408 321.081C89.3408 318.787 89.8486 317.006 90.8643 315.736C91.8799 314.467 93.2933 313.832 95.1045 313.832C96.9919 313.832 98.4391 314.518 99.4463 315.889H99.6113L99.5225 314.886L99.4717 313.908V308.246H101.579V328H99.8652L99.5859 326.134ZM95.3711 326.489C96.8099 326.489 97.8509 326.1 98.4941 325.321C99.1458 324.534 99.4717 323.269 99.4717 321.525V321.081C99.4717 319.109 99.1416 317.704 98.4814 316.866C97.8298 316.02 96.7845 315.597 95.3457 315.597C94.11 315.597 93.1621 316.079 92.502 317.044C91.8503 318 91.5244 319.354 91.5244 321.106C91.5244 322.884 91.8503 324.225 92.502 325.131C93.1536 326.036 94.11 326.489 95.3711 326.489ZM111.938 328.254C109.882 328.254 108.257 327.628 107.063 326.375C105.879 325.122 105.286 323.383 105.286 321.157C105.286 318.914 105.836 317.133 106.937 315.812C108.045 314.492 109.531 313.832 111.393 313.832C113.136 313.832 114.516 314.408 115.531 315.559C116.547 316.701 117.055 318.212 117.055 320.091V321.424H107.47C107.512 323.057 107.923 324.297 108.701 325.144C109.488 325.99 110.593 326.413 112.015 326.413C113.513 326.413 114.994 326.1 116.458 325.474V327.353C115.713 327.674 115.007 327.903 114.338 328.038C113.678 328.182 112.878 328.254 111.938 328.254ZM111.367 315.597C110.25 315.597 109.357 315.961 108.688 316.688C108.028 317.416 107.639 318.424 107.521 319.71H114.795C114.795 318.381 114.499 317.366 113.906 316.663C113.314 315.952 112.467 315.597 111.367 315.597ZM129.636 324.204C129.636 325.499 129.153 326.498 128.188 327.2C127.224 327.903 125.869 328.254 124.126 328.254C122.281 328.254 120.842 327.962 119.81 327.378V325.423C120.478 325.761 121.193 326.028 121.955 326.223C122.725 326.417 123.466 326.515 124.177 326.515C125.277 326.515 126.123 326.341 126.716 325.994C127.308 325.639 127.604 325.101 127.604 324.382C127.604 323.84 127.368 323.379 126.894 322.998C126.428 322.609 125.514 322.152 124.151 321.627C122.856 321.145 121.934 320.726 121.384 320.37C120.842 320.006 120.436 319.596 120.165 319.139C119.903 318.682 119.771 318.136 119.771 317.501C119.771 316.367 120.233 315.474 121.155 314.822C122.078 314.162 123.343 313.832 124.951 313.832C126.449 313.832 127.913 314.137 129.344 314.746L128.595 316.46C127.198 315.884 125.933 315.597 124.799 315.597C123.8 315.597 123.047 315.753 122.539 316.066C122.031 316.38 121.777 316.811 121.777 317.361C121.777 317.734 121.87 318.051 122.057 318.313C122.251 318.576 122.56 318.826 122.983 319.062C123.407 319.299 124.219 319.642 125.421 320.091C127.071 320.692 128.184 321.297 128.76 321.906C129.344 322.516 129.636 323.282 129.636 324.204ZM134.98 322.884H133.647L133 309.439H135.628L134.98 322.884ZM132.771 326.654C132.771 325.503 133.279 324.928 134.295 324.928C134.786 324.928 135.162 325.076 135.425 325.372C135.696 325.668 135.831 326.096 135.831 326.654C135.831 327.196 135.696 327.619 135.425 327.924C135.154 328.22 134.777 328.368 134.295 328.368C133.855 328.368 133.491 328.237 133.203 327.975C132.915 327.704 132.771 327.264 132.771 326.654Z" fill="white"/>
</svg>
