<svg width="492" height="365" viewBox="0 0 492 365" fill="none" xmlns="http://www.w3.org/2000/svg">
<path d="M399.568 164.98H243.268C238.87 164.98 235.305 161.415 235.305 157.017V8.20605C235.305 3.80805 238.87 0.24292 243.268 0.24292H399.568C403.966 0.24292 407.531 3.80805 407.531 8.20605V157.017C407.531 161.416 403.966 164.98 399.568 164.98Z" fill="#6277D7"/>
<path d="M333.298 24.0891H259.137C257.817 24.0891 256.747 23.019 256.747 21.699C256.747 20.379 257.817 19.3091 259.137 19.3091H333.298C334.618 19.3091 335.688 20.379 335.688 21.699C335.688 23.019 334.618 24.0891 333.298 24.0891Z" fill="#E1E9FF"/>
<path d="M309.457 36.0129H259.137C257.817 36.0129 256.747 34.943 256.747 33.623C256.747 32.303 257.817 31.2329 259.137 31.2329H309.457C310.777 31.2329 311.847 32.303 311.847 33.623C311.847 34.943 310.777 36.0129 309.457 36.0129Z" fill="#E1E9FF"/>
<path d="M271.707 55.5491H258.454C257.511 55.5491 256.747 54.785 256.747 53.842C256.747 52.899 257.511 52.135 258.454 52.135H271.707C272.65 52.135 273.414 52.899 273.414 53.842C273.414 54.785 272.65 55.5491 271.707 55.5491Z" fill="#89AEFF"/>
<path d="M277.475 110.418V153.017C277.475 153.96 276.711 154.724 275.768 154.724H268.871C267.928 154.724 267.164 153.96 267.164 153.017V110.418C267.164 109.475 267.928 108.711 268.871 108.711H275.768C276.711 108.711 277.475 109.476 277.475 110.418Z" fill="#89AEFF"/>
<path d="M296.218 93.304V153.017C296.218 153.96 295.454 154.724 294.511 154.724H287.614C286.671 154.724 285.907 153.96 285.907 153.017V93.304C285.907 92.361 286.671 91.5969 287.614 91.5969H294.511C295.454 91.5969 296.218 92.361 296.218 93.304Z" fill="#89AEFF"/>
<path d="M318.79 110.418V153.017C318.79 153.96 318.026 154.724 317.083 154.724H310.186C309.243 154.724 308.479 153.96 308.479 153.017V110.418C308.479 109.475 309.243 108.711 310.186 108.711H317.083C318.026 108.711 318.79 109.476 318.79 110.418Z" fill="#89AEFF"/>
<path d="M337.532 93.304V153.017C337.532 153.96 336.768 154.724 335.825 154.724H328.928C327.985 154.724 327.221 153.96 327.221 153.017V93.304C327.221 92.361 327.985 91.5969 328.928 91.5969H335.825C336.768 91.5969 337.532 92.361 337.532 93.304Z" fill="#89AEFF"/>
<path d="M360.104 122.893V153.018C360.104 153.961 359.34 154.725 358.397 154.725H351.5C350.557 154.725 349.793 153.961 349.793 153.018V122.893C349.793 121.95 350.557 121.186 351.5 121.186H358.397C359.34 121.186 360.104 121.95 360.104 122.893Z" fill="#89AEFF"/>
<path d="M378.847 110.418V153.017C378.847 153.96 378.083 154.724 377.14 154.724H370.243C369.3 154.724 368.536 153.96 368.536 153.017V110.418C368.536 109.475 369.3 108.711 370.243 108.711H377.14C378.083 108.711 378.847 109.476 378.847 110.418Z" fill="#89AEFF"/>
<path d="M277.475 126.152V153.018C277.475 153.961 276.711 154.725 275.768 154.725H268.871C267.928 154.725 267.164 153.961 267.164 153.018V126.152C267.164 125.209 267.928 124.445 268.871 124.445H275.768C276.711 124.445 277.475 125.209 277.475 126.152Z" fill="#D2DCFF"/>
<path d="M296.218 114.89V153.018C296.218 153.961 295.454 154.725 294.511 154.725H287.614C286.671 154.725 285.907 153.961 285.907 153.018V114.89C285.907 113.947 286.671 113.183 287.614 113.183H294.511C295.454 113.183 296.218 113.947 296.218 114.89Z" fill="#D2DCFF"/>
<path d="M318.79 126.152V153.018C318.79 153.961 318.026 154.725 317.083 154.725H310.186C309.243 154.725 308.479 153.961 308.479 153.018V126.152C308.479 125.209 309.243 124.445 310.186 124.445H317.083C318.026 124.445 318.79 125.209 318.79 126.152Z" fill="#D2DCFF"/>
<path d="M337.532 114.89V153.018C337.532 153.961 336.768 154.725 335.825 154.725H328.928C327.985 154.725 327.221 153.961 327.221 153.018V114.89C327.221 113.947 327.985 113.183 328.928 113.183H335.825C336.768 113.183 337.532 113.947 337.532 114.89Z" fill="#D2DCFF"/>
<path d="M360.104 134.361V153.017C360.104 153.96 359.34 154.724 358.397 154.724H351.5C350.557 154.724 349.793 153.96 349.793 153.017V134.361C349.793 133.418 350.557 132.654 351.5 132.654H358.397C359.34 132.654 360.104 133.418 360.104 134.361Z" fill="#D2DCFF"/>
<path d="M378.847 126.152V153.017C378.847 153.96 378.083 154.724 377.14 154.724H370.243C369.3 154.724 368.536 153.96 368.536 153.017V126.152C368.536 125.209 369.3 124.445 370.243 124.445H377.14C378.082 124.445 378.847 125.209 378.847 126.152Z" fill="#D2DCFF"/>
<path d="M363.866 279.934L374.11 364.857H377.469L367.226 279.934H363.866Z" fill="#D2DCFF"/>
<path d="M409.133 279.933L410.285 289.484L419.376 364.856H422.736L413.6 289.11L412.493 279.933H409.133Z" fill="#D2DCFF"/>
<path d="M363.866 364.856H367.226L368.642 353.111L370.322 339.185L375.847 293.378L377.469 279.933H374.109L372.441 293.762L368.642 325.257L366.963 339.183L363.866 364.856Z" fill="#D2DCFF"/>
<path d="M318.599 364.856H321.959L329.909 298.941H329.91L332.202 279.933H328.842L326.505 299.308L318.599 364.856Z" fill="#D2DCFF"/>
<path d="M412.329 223.164H408.969V274.534H412.329V223.164Z" fill="#D2DCFF"/>
<path d="M366.677 223.164H363.318V274.534H366.677V223.164Z" fill="#D2DCFF"/>
<path d="M327.432 274.534H373.591C372.1 274.534 370.891 275.742 370.891 277.233C370.891 278.724 372.1 279.933 373.591 279.933H327.432C325.941 279.933 324.732 278.724 324.732 277.233C324.732 275.742 325.941 274.534 327.432 274.534Z" fill="#D2DCFF"/>
<path d="M370.891 277.233C370.891 275.742 372.1 274.534 373.591 274.534H408.898H413.446C414.937 274.534 416.146 275.742 416.146 277.233C416.146 278.724 414.937 279.933 413.446 279.933H408.898H373.591C372.1 279.933 370.891 278.724 370.891 277.233Z" fill="#86A2E2"/>
<path d="M360.573 184.505H415.074C417.152 184.505 418.837 186.19 418.837 188.267V219.401C418.837 221.479 417.152 223.164 415.074 223.164H360.573C358.495 223.164 356.81 221.479 356.81 219.401V188.267C356.81 186.189 358.494 184.505 360.573 184.505Z" fill="#D2DCFF"/>
<path d="M409.133 279.933L410.285 289.484C411.499 289.347 412.608 289.222 413.599 289.111L412.492 279.933H409.133Z" fill="#AEC3FF"/>
<path d="M374.109 279.933L372.441 293.763C373.582 293.635 374.718 293.506 375.847 293.379L377.469 279.933H374.109Z" fill="#AEC3FF"/>
<path d="M326.505 299.308C327.589 299.192 328.726 299.07 329.909 298.941H329.91L332.202 279.933H328.842L326.505 299.308Z" fill="#AEC3FF"/>
<path d="M412.329 223.164H408.969V230.259L412.329 229.887V223.164Z" fill="#AEC3FF"/>
<path d="M363.318 223.164V235.312L366.677 234.94V223.164H363.318Z" fill="#AEC3FF"/>
<path d="M345.126 142.805C346.373 157.936 357.366 167.422 363.816 167.422C364.784 167.422 365.838 167.249 366.938 166.947V174.494H383.3V155.306C383.451 154.909 383.598 154.469 383.742 154C390.996 153.307 390.695 141.319 386.385 141.319C385.601 141.319 385.077 142.06 384.747 142.806L383.677 143.876V138.46C383.677 138.46 381.27 138.686 376.53 131.464C374.485 134.566 358.174 139.438 345.085 137.256C345.084 137.256 345.051 139.95 345.126 142.805Z" fill="#FCBEB7"/>
<path d="M364.945 116.719C376.229 116.719 378.486 122.737 378.486 122.737C383.301 122.737 390.673 131.539 386.234 141.318L386.211 141.341L383.676 143.876V138.46C383.676 138.46 381.269 138.686 376.529 131.464C374.484 134.566 358.173 139.438 345.084 137.256C345.084 137.256 345.05 139.95 345.125 142.805C345.125 142.808 345.125 142.811 345.125 142.814C340.236 128.671 350.05 116.719 364.945 116.719Z" fill="#311643"/>
<path d="M369.797 146.936C370.296 146.936 370.7 146.532 370.7 146.033V144.347C370.7 143.848 370.296 143.444 369.797 143.444C369.298 143.444 368.894 143.848 368.894 144.347V146.033C368.894 146.532 369.298 146.936 369.797 146.936Z" fill="#311643"/>
<path d="M353.059 146.936C353.558 146.936 353.962 146.532 353.962 146.033V144.347C353.962 143.848 353.558 143.444 353.059 143.444C352.56 143.444 352.156 143.848 352.156 144.347V146.033C352.156 146.532 352.56 146.936 353.059 146.936Z" fill="#311643"/>
<path d="M363.159 157.473C364.77 157.473 365.867 156.867 366.532 156.315C367.37 155.619 367.718 154.86 367.733 154.828C367.827 154.62 367.734 154.375 367.526 154.281C367.318 154.187 367.074 154.28 366.979 154.487C366.932 154.589 365.788 156.989 362.463 156.604C362.236 156.579 362.031 156.74 362.004 156.968C361.977 157.196 362.14 157.4 362.368 157.426C362.645 157.458 362.908 157.473 363.159 157.473Z" fill="#311643"/>
<path d="M375.79 154.421C378.255 154.421 380.254 152.422 380.254 149.957C380.254 147.492 378.255 145.493 375.79 145.493C373.325 145.493 371.326 147.492 371.326 149.957C371.326 152.422 373.325 154.421 375.79 154.421Z" fill="#F49795"/>
<path d="M345.59 146.251C346.156 149.249 347.104 151.982 348.303 154.415C350.664 154.298 352.541 152.347 352.541 149.957C352.541 147.492 350.543 145.494 348.078 145.494C347.157 145.493 346.301 145.773 345.59 146.251Z" fill="#F49795"/>
<path d="M346.733 142.707C346.733 146.195 349.571 149.032 353.058 149.032C356.466 149.032 359.251 146.323 359.377 142.946C361.269 141.875 362.953 142.644 363.476 142.941C363.6 146.321 366.386 149.032 369.795 149.032C373.283 149.032 376.12 146.195 376.12 142.707C376.12 139.219 373.282 136.382 369.795 136.382C366.537 136.382 363.847 138.858 363.507 142.027C362.682 141.648 361.118 141.196 359.346 142.03C359.007 138.859 356.316 136.382 353.057 136.382C349.571 136.382 346.733 139.219 346.733 142.707ZM364.299 142.707C364.299 139.675 366.765 137.209 369.797 137.209C372.829 137.209 375.295 139.675 375.295 142.707C375.295 145.738 372.829 148.205 369.797 148.205C366.765 148.205 364.299 145.739 364.299 142.707ZM347.561 142.707C347.561 139.675 350.027 137.209 353.059 137.209C356.091 137.209 358.557 139.675 358.557 142.707C358.557 145.738 356.091 148.205 353.059 148.205C350.027 148.205 347.561 145.739 347.561 142.707Z" fill="white"/>
<path d="M366.938 174.494V166.947C370.638 165.93 374.85 163.439 378.016 161.064L366.938 174.494Z" fill="#F9AFAB"/>
<path d="M320.45 303.504L323.866 303.036L327.101 276.214H323.741L320.45 303.504Z" fill="#EBEDF4"/>
<path d="M329.523 201.005L326.556 206.693H342.37L329.523 201.005Z" fill="#FCBEB7"/>
<path d="M359.813 350.025V362.271C359.813 363.699 358.655 364.856 357.227 364.856H322.493C322.163 364.856 321.895 364.588 321.895 364.258V362.001C321.895 360.912 322.53 359.922 323.52 359.469L343.604 350.024H359.813V350.025Z" fill="#2F3D6C"/>
<path d="M359.813 343.058L359.805 350.025H343.605L342.485 343.058H359.813Z" fill="#FCBEB7"/>
<path d="M366.967 167.376L344.974 177.31C341.95 178.676 339.489 181.043 338.007 184.012L329.524 201.004L342.371 206.692L341.307 244.252H405.327L402.532 209.173L414.11 209.248V190.055C414.11 184.11 410.538 178.748 405.052 176.457L383.301 167.375C383.3 167.376 373.797 173.612 366.967 167.376Z" fill="#89AEFF"/>
<path d="M361.703 169.661C365.175 172.57 369.515 174.154 374.098 174.154C378.923 174.154 383.68 172.228 387.236 169.02L386.536 168.728C383.132 171.714 378.667 173.492 374.097 173.492C369.783 173.492 365.692 172.039 362.384 169.365L361.703 169.661Z" fill="white"/>
<path d="M325.727 350.025V362.271C325.727 363.699 324.569 364.856 323.141 364.856H288.407C288.076 364.856 287.809 364.588 287.809 364.258V362.001C287.809 360.912 288.444 359.922 289.434 359.469L309.518 350.024H325.727V350.025Z" fill="#2F3D6C"/>
<path d="M325.727 343.058L325.718 350.025H309.519L308.398 343.058H325.727Z" fill="#FCBEB7"/>
<path d="M371.242 244.253V244.907C371.255 261.358 357.922 274.701 341.47 274.701H327.64L325.727 343.056H308.398L295.621 261.554C294.196 252.465 301.223 244.252 310.422 244.252H371.242V244.253Z" fill="#6277D7"/>
<path d="M295.438 259.27C296.93 261.453 299.441 262.886 302.286 262.886C306.867 262.886 310.58 259.173 310.58 254.592C310.58 250.193 307.155 246.594 302.827 246.316C298.357 248.951 295.414 253.83 295.438 259.27Z" fill="#4A5EA3"/>
<path d="M329.526 258.951L327.64 274.702H338.988L329.526 258.951Z" fill="#4A5EA3"/>
<path d="M405.328 244.253V244.907C405.341 261.358 392.008 274.701 375.556 274.701H361.726L359.813 343.056H342.484L329.707 261.554C328.282 252.465 335.309 244.252 344.508 244.252H405.328V244.253Z" fill="#6277D7"/>
<path d="M414.109 209.249L413.493 230.522C413.326 236.271 408.618 240.846 402.866 240.846H365.835L363.349 232.185L396.013 226.801L396.244 209.133L414.109 209.249Z" fill="#FCBEB7"/>
<path d="M403.127 236.422C403.127 238.103 403.883 239.609 405.074 240.616C408.902 239.807 411.978 236.938 413.069 233.207C412.072 231.828 410.45 230.931 408.618 230.931C405.585 230.93 403.127 233.389 403.127 236.422Z" fill="#F9AFAB"/>
<path d="M396.243 209.134L391.229 227.59L396.012 226.801L396.243 209.134Z" fill="#4A62D3"/>
<path d="M367.912 231.433L373.75 240.846H365.835L363.349 232.185L367.912 231.433Z" fill="#F9AFAB"/>
<path d="M304.279 206.693H352.565C354.617 206.693 356.421 208.052 356.987 210.024L365.835 240.845H385.415C386.356 240.845 387.119 241.608 387.119 242.549C387.119 243.49 386.356 244.253 385.415 244.253H366.813H360.898H308.954L299.857 212.563C299.013 209.623 301.22 206.693 304.279 206.693Z" fill="#4A5EA3"/>
<path d="M329.526 258.951C330.987 261.313 333.601 262.886 336.583 262.886C341.164 262.886 344.877 259.173 344.877 254.592C344.877 250.128 341.351 246.487 336.931 246.305C332.539 248.887 329.616 253.632 329.526 258.951Z" fill="#4A5EA3"/>
<path d="M331.181 229.389C332.167 229.302 332.864 228.065 332.737 226.626C332.611 225.186 331.709 224.09 330.723 224.176C329.737 224.263 329.04 225.5 329.167 226.94C329.293 228.379 330.195 229.475 331.181 229.389Z" fill="#89AEFF"/>
<path d="M404.396 184.269C404.396 186.951 406.571 189.126 409.253 189.126C411.188 189.126 412.857 187.995 413.638 186.359C412.952 183.708 411.539 181.307 409.577 179.424C409.47 179.416 409.362 179.413 409.253 179.413C406.57 179.413 404.396 181.587 404.396 184.269Z" fill="#4A62D3"/>
<path d="M338.306 183.444C339.08 183.965 340.012 184.269 341.015 184.269C343.697 184.269 345.871 182.094 345.871 179.413C345.871 178.598 345.671 177.83 345.316 177.156L344.973 177.311C342.145 178.588 339.81 180.741 338.306 183.444Z" fill="#4A62D3"/>
<path d="M239.928 227.242L222.978 364.286H219.612L236.562 227.242H239.928Z" fill="#D2DCFF"/>
<path d="M167.103 279.223L156.842 364.286H153.478L163.737 279.223H167.103Z" fill="#D2DCFF"/>
<path d="M121.761 279.222L120.607 288.789L111.501 364.285H108.136L117.287 288.415L118.396 279.222H121.761Z" fill="#D2DCFF"/>
<path d="M167.103 364.285H163.737L162.319 352.521L160.636 338.572L155.102 292.69L153.478 279.222H156.843L158.514 293.074L162.319 324.621L164.001 338.57L167.103 364.285Z" fill="#D2DCFF"/>
<path d="M212.444 364.285H209.079L201.116 298.261H201.115L198.819 279.222H202.184L204.525 298.629L212.444 364.285Z" fill="#D2DCFF"/>
<path d="M121.925 222.359H118.56V273.814H121.925V222.359Z" fill="#D2DCFF"/>
<path d="M167.652 222.359H164.287V273.814H167.652V222.359Z" fill="#D2DCFF"/>
<path d="M203.597 273.814H157.362C158.855 273.814 160.066 275.025 160.066 276.518C160.066 278.011 158.855 279.222 157.362 279.222H203.597C205.09 279.222 206.301 278.011 206.301 276.518C206.301 275.025 205.09 273.814 203.597 273.814Z" fill="#D2DCFF"/>
<path d="M160.066 276.518C160.066 275.025 158.855 273.814 157.362 273.814H121.997H117.441C115.948 273.814 114.737 275.025 114.737 276.518C114.737 278.011 115.948 279.222 117.441 279.222H121.997H157.362C158.855 279.222 160.066 278.011 160.066 276.518Z" fill="#86A2E2"/>
<path d="M169.058 222.359H117.154C114.331 222.359 112.042 220.07 112.042 217.247V188.749C112.042 185.926 114.331 183.637 117.154 183.637H169.058C171.881 183.637 174.17 185.926 174.17 188.749V217.247C174.17 220.071 171.882 222.359 169.058 222.359Z" fill="#D2DCFF"/>
<path d="M121.761 279.222L120.607 288.789C119.391 288.652 118.28 288.527 117.287 288.415L118.396 279.222H121.761Z" fill="#AEC3FF"/>
<path d="M156.843 279.222L158.514 293.075C157.371 292.947 156.233 292.818 155.102 292.69L153.478 279.222H156.843Z" fill="#AEC3FF"/>
<path d="M204.525 298.629C203.439 298.513 202.3 298.39 201.116 298.262H201.115L198.819 279.222H202.184L204.525 298.629Z" fill="#AEC3FF"/>
<path d="M118.56 222.359H121.925V229.466L118.56 229.094V222.359Z" fill="#AEC3FF"/>
<path d="M167.652 222.359V234.528L164.287 234.156V222.359H167.652Z" fill="#AEC3FF"/>
<path d="M174.234 132.061C170.28 138.602 158.195 148.014 140.225 142.269V142.27C140.169 142.262 140.113 142.257 140.054 142.257C135.779 142.257 135.481 154.146 142.675 154.833C142.781 155.182 142.89 155.513 143.001 155.824V175.158H159.228V167.643C160.359 167.962 161.443 168.145 162.436 168.145C169.148 168.145 180.816 157.791 181.081 141.48C179.285 141.076 174.234 136.625 174.234 132.061Z" fill="#FCBEB7"/>
<path d="M184.49 136.737C184.49 125.994 175.015 117.289 160.807 117.289C148.999 117.289 144.941 123.805 144.941 123.805C144.941 123.805 133.78 126.217 133.78 140.086C133.78 152.978 133.78 175.159 133.78 175.159H152.119H153.054H166.598H181.321V146.275C182.484 144.847 184.49 141.67 184.49 136.737ZM162.436 168.146C161.443 168.146 160.359 167.963 159.228 167.644V175.159H143.001V155.825C142.89 155.515 142.781 155.183 142.675 154.834C135.481 154.146 135.779 142.258 140.054 142.258C140.112 142.258 140.169 142.263 140.225 142.271V142.27C158.195 148.015 170.28 138.602 174.234 132.062C174.234 136.626 179.285 141.076 181.082 141.482C180.816 157.792 169.148 168.146 162.436 168.146Z" fill="#311643"/>
<path d="M130.292 173.733L143.001 167.845L149.976 168.03L159.228 168.466L172.525 172.503V189.469H130.292V173.733Z" fill="#FCBEB7"/>
<path d="M172.525 190.508V172.504L159.228 168.467V167.644C155.468 166.583 151.194 164.013 148.056 161.615L172.525 190.508Z" fill="#F9AFAB"/>
<path d="M150.561 155.252C153.006 155.252 154.988 153.27 154.988 150.825C154.988 148.38 153.006 146.398 150.561 146.398C148.116 146.398 146.134 148.38 146.134 150.825C146.134 153.27 148.116 155.252 150.561 155.252Z" fill="#F49795"/>
<path d="M180.512 147.149C179.951 150.122 179.01 152.833 177.822 155.245C175.481 155.129 173.619 153.194 173.619 150.824C173.619 148.379 175.601 146.398 178.045 146.398C178.958 146.398 179.807 146.675 180.512 147.149Z" fill="#F49795"/>
<path d="M173.024 137.361C169.792 137.361 167.123 139.819 166.787 142.963C165.03 142.136 163.479 142.584 162.66 142.96C162.322 139.817 159.655 137.361 156.424 137.361C152.965 137.361 150.151 140.175 150.151 143.634C150.151 147.093 152.965 149.907 156.424 149.907C159.806 149.907 162.57 147.217 162.691 143.864C163.212 143.564 164.867 142.8 166.756 143.871C166.881 147.22 169.644 149.907 173.023 149.907C176.482 149.907 179.296 147.093 179.296 143.634C179.296 140.175 176.483 137.361 173.024 137.361ZM156.424 149.087C153.418 149.087 150.971 146.641 150.971 143.634C150.971 140.628 153.417 138.182 156.424 138.182C159.431 138.182 161.877 140.628 161.877 143.634C161.877 146.641 159.431 149.087 156.424 149.087ZM173.024 149.087C170.018 149.087 167.571 146.641 167.571 143.634C167.571 140.628 170.017 138.182 173.024 138.182C176.031 138.182 178.477 140.628 178.477 143.634C178.477 146.641 176.031 149.087 173.024 149.087Z" fill="white"/>
<path d="M173.028 147.646C172.534 147.646 172.133 147.245 172.133 146.751V145.079C172.133 144.584 172.534 144.183 173.028 144.183C173.522 144.183 173.923 144.584 173.923 145.079V146.751C173.923 147.245 173.523 147.646 173.028 147.646Z" fill="#311643"/>
<path d="M156.696 147.646C156.202 147.646 155.801 147.245 155.801 146.751V145.079C155.801 144.584 156.202 144.183 156.696 144.183C157.191 144.183 157.591 144.584 157.591 145.079V146.751C157.592 147.245 157.191 147.646 156.696 147.646Z" fill="#311643"/>
<path d="M163.088 158.279C161.49 158.279 160.402 157.678 159.743 157.131C158.912 156.441 158.567 155.688 158.552 155.656C158.459 155.449 158.551 155.206 158.758 155.113C158.964 155.02 159.206 155.112 159.3 155.317C159.347 155.419 160.482 157.798 163.779 157.417C164.005 157.391 164.208 157.552 164.234 157.778C164.26 158.003 164.099 158.207 163.873 158.233C163.598 158.264 163.336 158.279 163.088 158.279Z" fill="#311643"/>
<path d="M199.819 357.891L184.933 351.492L185.696 355.181L167.385 349.431V354.678C167.385 356.523 168.35 358.196 169.867 359.136L171.442 363.638C171.578 364.027 171.945 364.288 172.358 364.288C172.894 364.288 173.328 363.854 173.328 363.318V360.39L185.843 364.288H198.503C200.344 364.288 201.836 362.796 201.836 360.955C201.835 359.621 201.042 358.417 199.819 357.891Z" fill="#2F3D6C"/>
<path d="M232.279 357.891L217.393 351.492L218.156 355.181L199.845 349.431V354.678C199.845 356.523 200.81 358.196 202.327 359.136L203.902 363.638C204.038 364.027 204.405 364.288 204.818 364.288C205.354 364.288 205.788 363.854 205.788 363.318V360.39L218.303 364.288H230.963C232.804 364.288 234.296 362.796 234.296 360.955C234.296 359.621 233.503 358.417 232.279 357.891Z" fill="#2F3D6C"/>
<path d="M167.385 342.451L167.393 349.43L185.696 355.18L184.933 351.492L183.413 350.715L184.742 342.451H167.385Z" fill="#FCBEB7"/>
<path d="M199.845 342.451L199.854 349.43L218.157 355.18L217.393 351.492L215.873 350.718L217.202 342.451H199.845Z" fill="#FCBEB7"/>
<path d="M154.255 243.484V244.14C154.242 260.619 167.597 273.984 184.076 273.984H197.929L199.846 342.452H217.203L230.001 260.816C231.428 251.712 224.39 243.485 215.176 243.485H154.255V243.484Z" fill="#6277D7"/>
<path d="M196.737 265.935L197.928 273.983H195.4L196.737 265.935Z" fill="#4A5EA3"/>
<path d="M127.024 255.922C127.893 266.136 136.437 273.984 146.688 273.984H165.468L167.385 342.452H184.742L197.405 261.678C198.903 252.122 191.515 243.485 181.842 243.485H180.453L176.469 231.577H130.747L127.271 250.725C126.959 252.438 126.876 254.186 127.024 255.922Z" fill="#6277D7"/>
<path d="M153.713 181.813C156.795 181.813 159.26 178.845 160.922 175.839H143.346C146.026 178.837 149.698 181.813 153.713 181.813Z" fill="white"/>
<path d="M186.744 182.271L185.528 180.378C183.949 177.92 181.727 175.964 179.125 174.708C178.4 174.359 177.647 174.064 176.868 173.827L163.326 169.703C163.326 170.193 162.474 173.033 160.922 175.84C159.26 178.846 156.795 181.814 153.713 181.814C149.698 181.814 146.027 178.838 143.346 175.84C140.626 172.798 138.927 169.733 138.927 169.733L126.826 175.34C121.874 177.635 118.227 182.05 116.909 187.348L111.515 204.585C110.592 207.535 110.122 210.608 110.122 213.699V215.127C110.122 218.832 113.126 221.835 116.831 221.835H129.732L130.747 231.576H176.468L187.992 184.213L186.744 182.271Z" fill="#FE9ECC"/>
<path d="M154.164 186.089C151.622 186.089 149.036 185.316 146.476 183.79C144.444 182.579 142.424 180.894 140.472 178.78C137.159 175.194 135.14 171.532 135.12 171.496L135.8 171.181C135.819 171.217 137.777 174.766 141.031 178.286C142.933 180.343 144.896 181.981 146.865 183.153C149.305 184.606 151.761 185.342 154.164 185.342C156.432 185.342 158.475 184.585 160.236 183.092C161.661 181.884 162.911 180.193 163.95 178.067C165.736 174.412 166.282 170.64 166.287 170.603L167.029 170.829C167.007 170.984 166.461 174.619 164.628 178.379C163.544 180.603 162.231 182.378 160.726 183.656C158.825 185.271 156.617 186.089 154.164 186.089Z" fill="white"/>
<path d="M230.013 260.724C228.497 262.357 226.331 263.379 223.926 263.379C219.337 263.379 215.617 259.659 215.617 255.07C215.617 250.481 219.337 246.762 223.926 246.762C224.142 246.762 224.357 246.77 224.569 246.786C228.562 250 230.848 255.196 230.013 260.724Z" fill="#4A5EA3"/>
<path d="M197.596 259.019C196.191 261.616 193.444 263.379 190.285 263.379C185.696 263.379 181.977 259.659 181.977 255.07C181.977 250.481 185.696 246.762 190.285 246.762C190.732 246.762 191.17 246.798 191.598 246.866C195.226 249.736 197.539 254.153 197.596 259.019Z" fill="#4A5EA3"/>
<path d="M116.155 221.834H166.322V215.502L116.844 209.809C113.263 209.397 110.122 212.197 110.122 215.802C110.123 219.134 112.823 221.834 116.155 221.834Z" fill="#FCBEB7"/>
<path d="M229.082 184.212H177.823C175.768 184.212 173.961 185.573 173.394 187.549L164.531 218.421H144.96C144.035 218.421 143.246 219.14 143.214 220.065C143.18 221.036 143.956 221.834 144.92 221.834H169.476H221.506L231.417 187.31C231.862 185.759 230.697 184.212 229.082 184.212Z" fill="#4A5EA3"/>
<path d="M201.588 204.401C201.715 202.959 201.017 201.721 200.03 201.634C199.042 201.547 198.138 202.645 198.012 204.086C197.885 205.528 198.583 206.767 199.571 206.854C200.558 206.941 201.461 205.842 201.588 204.401Z" fill="#2F3D6C"/>
<path d="M130.746 231.576L128.917 241.651L177.519 234.717L176.468 231.576H130.746Z" fill="#4A5EA3"/>
<path d="M128.116 178.216C128.116 181.256 125.652 183.72 122.611 183.72C121.222 183.72 119.953 183.205 118.984 182.356C120.821 179.323 123.535 176.864 126.825 175.339L127.194 175.168C127.777 176.041 128.116 177.09 128.116 178.216Z" fill="#FF78BA"/>
<path d="M186.744 182.271C185.891 182.815 184.878 183.129 183.792 183.129C180.752 183.129 178.287 180.665 178.287 177.625C178.287 176.554 178.594 175.553 179.124 174.707C181.727 175.963 183.949 177.919 185.527 180.377L186.744 182.271Z" fill="#FF78BA"/>
<path d="M169.142 202.361C168.929 203.102 159.619 213.128 159.619 213.128L134.812 211.877L165.401 215.397L169.142 202.361Z" fill="#FF78BA"/>
<path d="M71.153 227.243L66.618 263.908L54.203 364.286H50.837L63.217 264.195L67.788 227.243H71.153Z" fill="#D2DCFF"/>
<path d="M115.691 364.286H112.326L99.567 261.13L95.376 227.243H98.741L102.898 260.849L115.691 364.286Z" fill="#D2DCFF"/>
<path d="M67.788 227.243H71.153L66.618 263.908L63.217 264.195L67.788 227.243Z" fill="#AEC3FF"/>
<path d="M98.741 227.243L102.898 260.849L99.567 261.13L95.376 227.243H98.741Z" fill="#AEC3FF"/>
<path d="M284.466 364.286H281.101L266.6 247.043L264.151 227.243H267.516L269.931 246.762L284.466 364.286Z" fill="#D2DCFF"/>
<path d="M269.931 246.762L266.6 247.043L264.151 227.243H267.516L269.931 246.762Z" fill="#AEC3FF"/>
<path d="M276.435 221.834H104.799V227.242H276.435C277.928 227.242 279.139 226.031 279.139 224.538C279.139 223.045 277.928 221.834 276.435 221.834Z" fill="#D2DCFF"/>
<path d="M69.8621 221.834H59.72C58.227 221.834 57.016 223.045 57.016 224.538C57.016 226.031 58.227 227.242 59.72 227.242H69.8621H104.799V221.834H69.8621Z" fill="#86A2E2"/>
<path d="M272.574 215.789V214.411C272.574 213.984 272.228 213.639 271.802 213.639H239.813C238.199 213.639 236.891 214.947 236.891 216.561V218.912C236.891 220.526 238.199 221.835 239.813 221.835H271.802C272.228 221.835 272.574 221.489 272.574 221.063V219.684C272.574 219.258 272.228 218.912 271.802 218.912H240.988C240.339 218.912 239.813 218.386 239.813 217.737C239.813 217.088 240.339 216.562 240.988 216.562H271.802C272.229 216.561 272.574 216.216 272.574 215.789Z" fill="#6277D7"/>
<path d="M271.193 216.561V218.912H240.989C240.34 218.912 239.814 218.386 239.814 217.737C239.814 217.088 240.34 216.562 240.989 216.562H271.193V216.561Z" fill="#D2DCFF"/>
<path d="M270.289 207.594V206.215C270.289 205.789 269.943 205.443 269.517 205.443H242.099C240.485 205.443 239.177 206.752 239.177 208.366V210.717C239.177 212.331 240.485 213.639 242.099 213.639H269.517C269.943 213.639 270.289 213.294 270.289 212.867V211.488C270.289 211.062 269.943 210.716 269.517 210.716H243.274C242.625 210.716 242.099 210.19 242.099 209.541C242.099 208.892 242.625 208.366 243.274 208.366H269.517C269.943 208.365 270.289 208.02 270.289 207.594Z" fill="#F9A0C0"/>
<path d="M269.272 208.365V210.716H243.274C242.625 210.716 242.099 210.19 242.099 209.541C242.099 208.892 242.625 208.366 243.274 208.366H269.272V208.365Z" fill="#FFD9E8"/>
<path d="M84.9289 208.683H100.024C100.769 208.683 101.346 209.334 101.257 210.073L99.98 220.74C99.905 221.364 99.3759 221.834 98.7469 221.834H86.206C85.577 221.834 85.048 221.364 84.973 220.74L83.696 210.073C83.608 209.334 84.1849 208.683 84.9289 208.683Z" fill="#D2DCFF"/>
<path d="M97.6591 204.33V199.48L94.757 204.993V196.039L92.4771 201.677L90.197 196.039V204.993L87.295 199.48V204.33L83.066 197.531L84.929 208.683H92.4771H100.025L101.888 197.531L97.6591 204.33Z" fill="#6277D7"/>
<path d="M116.238 219.807C118.45 219.807 120.243 218.014 120.243 215.802C120.243 213.59 118.45 211.797 116.238 211.797C114.026 211.797 112.233 213.59 112.233 215.802C112.233 218.014 114.026 219.807 116.238 219.807Z" fill="#F9AFAB"/>
<path d="M468.903 279.001L466.655 297.652L463.953 320.046L462.255 334.125L461.677 338.9L459.979 352.983L458.547 364.856H455.15L458.283 338.903L459.979 324.821L460.556 320.046L462.255 305.966V305.963L463.382 296.62L465.506 279.001H468.903Z" fill="#D2DCFF"/>
<path d="M491.655 364.856H488.259L480.69 302.093L477.903 279.001H481.3L484.22 303.208L491.655 364.856Z" fill="#D2DCFF"/>
<path d="M446.604 279.001L445.172 290.861L439.378 338.9L437.68 352.983L436.248 364.856H432.851L435.981 338.903L437.68 324.821L441.902 289.826L443.207 279.001H446.604Z" fill="#D2DCFF"/>
<path d="M469.356 364.856H465.96L462.255 334.125L460.556 320.046L457.505 294.76L455.604 279.001H459.001L461.039 295.877L462.255 305.963V305.966L463.953 320.046L469.356 364.856Z" fill="#D2DCFF"/>
<path d="M483.593 279H439.517C438.052 279 436.865 277.812 436.865 276.348V276.194C436.865 274.729 438.053 273.542 439.517 273.542H483.593C485.058 273.542 486.245 274.73 486.245 276.194V276.348C486.245 277.812 485.058 279 483.593 279Z" fill="#D2DCFF"/>
<path d="M462.339 279H439.517C438.052 279 436.865 277.812 436.865 276.348V276.194C436.865 274.729 438.053 273.542 439.517 273.542H462.339C463.804 273.542 464.991 274.73 464.991 276.194V276.348C464.991 277.812 463.804 279 462.339 279Z" fill="#86A2E2"/>
<path d="M453.937 260.267H469.173C469.924 260.267 470.507 260.923 470.418 261.67L469.129 272.437C469.054 273.067 468.519 273.541 467.884 273.541H455.226C454.591 273.541 454.057 273.067 453.981 272.437L452.692 261.67C452.603 260.924 453.186 260.267 453.937 260.267Z" fill="#D2DCFF"/>
<path d="M466.786 255.874V250.978L463.856 256.543V247.505L461.555 253.196L459.254 247.505V256.543L456.325 250.978V255.874L452.057 249.011L453.937 260.267H461.555H469.173L471.054 249.011L466.786 255.874Z" fill="#FE9ECC"/>
<path d="M446.604 279.001L445.172 290.861L441.902 289.826L443.207 279.001H446.604Z" fill="#AEC3FF"/>
<path d="M461.039 295.877L457.505 294.76L455.604 279.001H459.001L461.039 295.877Z" fill="#AEC3FF"/>
<path d="M468.903 279.001L466.655 297.652L463.382 296.62L465.506 279.001H468.903Z" fill="#AEC3FF"/>
<path d="M484.22 303.208L480.69 302.093L477.903 279.001H481.3L484.22 303.208Z" fill="#AEC3FF"/>
<path d="M108.136 81.939V123.142C108.136 124.596 106.957 125.775 105.503 125.775H55.9709C54.5169 125.775 53.338 124.596 53.338 123.142V81.939C53.338 80.485 54.5159 79.3059 55.9709 79.3059H105.503C106.957 79.3059 108.136 80.485 108.136 81.939Z" fill="#FFD9E8"/>
<path d="M108.136 81.939V89.707H53.338V81.939C53.338 80.485 54.5169 79.3059 55.9709 79.3059H105.503C106.957 79.3059 108.136 80.485 108.136 81.939Z" fill="#FE9ECC"/>
<path d="M68.188 82.604C67.437 82.604 66.829 81.9961 66.829 81.2451V77.3679C66.829 76.6179 67.438 76.009 68.188 76.009C68.939 76.009 69.547 76.6179 69.547 77.3679V81.2451C69.548 81.9961 68.939 82.604 68.188 82.604Z" fill="#FE9ECC"/>
<path d="M93.285 82.604C92.534 82.604 91.926 81.9961 91.926 81.2451V77.3679C91.926 76.6179 92.535 76.009 93.285 76.009C94.036 76.009 94.644 76.6179 94.644 77.3679V81.2451C94.644 81.9961 94.036 82.604 93.285 82.604Z" fill="#FE9ECC"/>
<path d="M68.986 108.896L74.835 103.643C75.133 103.374 75.43 103.069 75.728 102.728C76.026 102.388 76.175 101.991 76.175 101.537C76.175 101.027 75.9899 100.626 75.6219 100.335C75.2529 100.044 74.821 99.8989 74.325 99.8989C73.729 99.8989 73.265 100.083 72.932 100.452C72.599 100.821 72.411 101.275 72.368 101.813L69.178 101.579C69.22 100.799 69.383 100.122 69.667 99.5481C69.951 98.9741 70.3259 98.4951 70.7939 98.1121C71.2619 97.7291 71.811 97.442 72.442 97.251C73.073 97.06 73.757 96.9641 74.494 96.9641C75.175 96.9641 75.813 97.06 76.408 97.251C77.003 97.442 77.5211 97.7261 77.9611 98.1021C78.4001 98.4781 78.744 98.9491 78.993 99.5171C79.241 100.084 79.365 100.744 79.365 101.495C79.365 101.977 79.3149 102.413 79.2159 102.803C79.1169 103.193 78.978 103.548 78.801 103.866C78.624 104.185 78.4139 104.48 78.174 104.749C77.933 105.019 77.67 105.281 77.387 105.536L72.814 109.471H79.4919V112.279H68.985V108.896H68.986Z" fill="#FE9ECC"/>
<path d="M87.022 106.897C86.852 106.939 86.682 106.975 86.512 107.003C86.342 107.032 86.164 107.045 85.98 107.045C85.271 107.045 84.626 106.918 84.045 106.662C83.463 106.407 82.967 106.059 82.556 105.62C82.145 105.181 81.826 104.66 81.599 104.057C81.372 103.455 81.259 102.813 81.259 102.132C81.259 101.352 81.4039 100.647 81.6949 100.016C81.9849 99.3851 82.383 98.8429 82.886 98.3889C83.389 97.9349 83.981 97.5839 84.662 97.3359C85.343 97.0879 86.08 96.9641 86.874 96.9641C87.654 96.9641 88.387 97.0879 89.075 97.3359C89.763 97.5839 90.3581 97.9349 90.8621 98.3889C91.3651 98.8429 91.762 99.3851 92.053 100.016C92.343 100.647 92.489 101.353 92.489 102.132C92.489 102.671 92.439 103.163 92.34 103.61C92.241 104.057 92.11 104.479 91.947 104.876C91.784 105.273 91.592 105.652 91.373 106.014C91.153 106.376 90.923 106.748 90.682 107.131L87.385 112.278H83.493L87.022 106.897ZM84.448 102.26C84.448 102.941 84.671 103.504 85.118 103.951C85.565 104.398 86.149 104.621 86.873 104.621C87.597 104.621 88.1811 104.398 88.6281 103.951C89.0751 103.504 89.298 102.941 89.298 102.26C89.298 101.579 89.0751 101.016 88.6281 100.569C88.1811 100.122 87.597 99.8989 86.873 99.8989C86.149 99.8989 85.565 100.122 85.118 100.569C84.672 101.016 84.448 101.58 84.448 102.26Z" fill="#FE9ECC"/>
<path d="M87.032 120.192H74.442C74.136 120.192 73.8879 119.944 73.8879 119.638C73.8879 119.332 74.136 119.084 74.442 119.084H87.032C87.338 119.084 87.5861 119.332 87.5861 119.638C87.5861 119.944 87.338 120.192 87.032 120.192Z" fill="#FE9ECC"/>
<path d="M36.728 309.45C48.604 287.707 11.114 277.483 2.07701 286.107C-6.96099 294.732 23.001 334.582 36.728 309.45Z" fill="#FE9ECC"/>
<path d="M52.489 302.813C75.794 302.813 65.247 261.129 55.283 261.129C42.791 261.13 25.563 302.813 52.489 302.813Z" fill="#FE9ECC"/>
<path d="M70.452 317.934C89.666 333.575 106.553 298.578 99.721 288.119C92.889 277.66 48.243 299.855 70.452 317.934Z" fill="#FE9ECC"/>
<path d="M45.95 328.283C42.707 320.779 37.9601 313.787 31.8421 307.503C21.4331 296.813 10.4851 291.799 10.3751 291.75C10.0491 291.603 9.665 291.748 9.518 292.073C9.371 292.399 9.516 292.782 9.841 292.93C9.948 292.978 20.707 297.912 30.945 308.44C36.945 314.609 41.5971 321.467 44.7711 328.823C45.1311 329.658 45.466 330.501 45.788 331.349H47.173C46.792 330.318 46.387 329.295 45.95 328.283Z" fill="#FF78BA"/>
<path d="M54.7039 269.677C54.7459 269.322 54.4919 269 54.1369 268.957C53.7809 268.914 53.4599 269.168 53.4179 269.524C53.3759 269.878 50.108 297.812 50.275 331.349H51.5699C51.4029 297.899 54.6619 270.03 54.7039 269.677Z" fill="#FF78BA"/>
<path d="M93.249 292.802C93.05 292.504 92.648 292.424 92.351 292.623C92.258 292.685 82.91 298.973 73.293 309.315C68.055 314.947 62.101 322.499 57.739 331.349H59.187C63.451 322.889 69.1729 315.65 74.2209 310.219C83.7369 299.982 92.978 293.762 93.071 293.7C93.367 293.502 93.447 293.1 93.249 292.802Z" fill="#FF78BA"/>
<path d="M51.5699 331.349H50.275H47.1739H45.7889H27.712C27.017 331.349 26.524 332.028 26.739 332.689L27.88 336.19L28.458 337.962L36.719 363.308C36.943 363.996 37.585 364.462 38.308 364.462H68.085C68.808 364.462 69.4499 363.996 69.6739 363.308L77.9351 337.962L78.512 336.19L79.653 332.689C79.8689 332.028 79.376 331.349 78.681 331.349H59.183H57.735H51.5699Z" fill="#D2DCFF"/>
<path d="M78.514 336.19L77.937 337.961H28.458L27.881 336.19H78.514Z" fill="#AEC3FF"/>
</svg>
